<svg width="25" height="25" viewBox="0 0 25 25" fill="none" xmlns="http://www.w3.org/2000/svg">
<path d="M10.7598 9.95313C10.7598 9.95313 14.298 9.65899 14.39 12.9768C14.4818 16.2945 11.2191 16.7539 9.19726 16.6621C7.17539 16.5701 2.90195 13.7672 3.22363 9.30978L3.47305 7.72228L4.18379 6.90489C4.18379 6.90489 5.81836 3.60001 9.5498 2.60509C9.5498 2.60509 9.86953 2.07208 10.2605 2.07208C10.6514 2.07208 10.9713 2.49845 11.5398 2.56954C12.1084 2.64063 12.3217 2.03653 12.8547 2.07208C13.3877 2.10763 13.4232 2.49845 13.9918 2.60509C14.5603 2.71173 17.3322 3.03145 19.5709 6.0877C19.5709 6.0877 19.6775 6.86954 19.9973 7.01173C20.317 7.15392 21.0633 7.47364 21.1699 7.72247C21.2766 7.9713 22.0228 10.6363 21.9518 11.7736C21.8807 12.9108 21.5609 18.2057 18.0428 19.8402L17.9717 20.7996C17.9717 20.7996 15.342 23.1449 11.3264 22.8608C7.31074 22.5766 6.22949 22.1535 5.28535 20.8707C5.15527 20.694 4.96562 20.0533 4.96562 20.0533L4.61035 19.307C4.61035 19.307 4.29062 18.774 4.96562 18.8807C5.64082 18.9873 8.09277 19.9467 9.44316 19.9822C10.7936 20.0178 11.5043 19.307 11.7529 19.2359C12.0018 19.1649 13.4586 18.5963 13.8852 18.5252C14.3115 18.4541 16.9412 16.8451 17.3322 12.9768C17.7232 9.10841 14.2404 6.83399 12.2504 6.79845C12.2504 6.79845 11.0066 6.7629 10.7223 6.94063C10.4379 7.11837 8.59004 7.9711 7.77285 8.07774C7.77285 8.07774 7.09765 8.71739 7.2043 9.49923C7.31094 10.2811 7.31094 12.9719 10.1537 12.9768C10.1537 12.9768 10.8326 12.6104 10.7598 9.95313V9.95313Z" fill="black"/>
</svg>
