<svg width="27" height="27" viewBox="0 0 27 27" fill="none" xmlns="http://www.w3.org/2000/svg">
<path d="M11.6205 10.7494C11.6205 10.7494 15.4419 10.4317 15.5412 14.0149C15.6404 17.5981 12.1167 18.0942 9.93304 17.9951C7.74942 17.8957 3.13411 14.8686 3.48152 10.0546L3.75089 8.34006L4.51849 7.45728C4.51849 7.45728 6.28383 3.88801 10.3138 2.81349C10.3138 2.81349 10.6591 2.23785 11.0814 2.23785C11.5035 2.23785 11.849 2.69832 12.463 2.7751C13.0771 2.85188 13.3074 2.19945 13.8831 2.23785C14.4587 2.27624 14.4971 2.69832 15.1111 2.81349C15.7252 2.92867 18.7188 3.27397 21.1366 6.57472C21.1366 6.57472 21.2517 7.4191 21.597 7.57267C21.9423 7.72623 22.7483 8.07153 22.8635 8.34027C22.9787 8.609 23.7847 11.4872 23.7079 12.7155C23.6311 13.9436 23.2858 19.6621 19.4862 21.4275L19.4094 22.4636C19.4094 22.4636 16.5693 24.9965 12.2325 24.6896C7.8956 24.3827 6.72785 23.9258 5.70818 22.5404C5.56769 22.3495 5.36287 21.6576 5.36287 21.6576L4.97918 20.8516C4.97918 20.8516 4.63387 20.276 5.36287 20.3911C6.09208 20.5063 8.74019 21.5424 10.1986 21.5808C11.657 21.6192 12.4246 20.8516 12.6932 20.7748C12.9619 20.698 14.5353 20.084 14.996 20.0072C15.4564 19.9304 18.2965 18.1927 18.7188 14.0149C19.1411 9.83708 15.3797 7.38071 13.2304 7.34232C13.2304 7.34232 11.8872 7.30393 11.58 7.49589C11.2729 7.68784 9.27724 8.60879 8.39468 8.72396C8.39468 8.72396 7.66547 9.41478 7.78064 10.2592C7.89581 11.1036 7.89581 14.0096 10.966 14.0149C10.966 14.0149 11.6992 13.6192 11.6205 10.7494V10.7494Z" fill="black"/>
</svg>
