<svg width="153" height="153" viewBox="0 0 153 153" fill="none" xmlns="http://www.w3.org/2000/svg">
<path d="M67.0347 139.294C62.7002 134.575 58.593 126.736 55.5632 117.399C54.5503 114.278 53.408 110.093 53.408 109.503C53.408 109.355 53.9512 109.538 54.6151 109.909C56.073 110.724 58.6678 111.011 60.1512 110.521C61.6779 110.018 63.0954 108.583 63.6161 107.015C64.1679 105.354 64.2331 101.935 63.7511 99.9369C62.6249 95.2681 58.96 91.0011 53.9372 88.5108C51.3846 87.2453 49.4275 87.1741 47.2089 88.2663C45.6573 89.0302 44.3931 90.1405 43.3058 91.6942L42.8713 92.3151L41.3349 91.1801C34.8524 86.3912 29.9191 79.6305 27.5021 72.2234C26.6501 69.6122 25.8914 65.5633 25.8914 63.6273V62.3359L27.3905 63.9551C29.0674 65.7664 33.4335 69.3653 35.2342 70.4206C36.583 71.211 39.7512 71.891 42.085 71.891H43.6801L43.5737 70.2208C43.3473 66.6655 40.351 62.0176 34.4331 56.0419L30.9214 52.4959L32.1647 51.1471C32.8486 50.4053 36.2499 46.8261 39.7233 43.1933L46.0384 36.5883L45.8529 32.8441C45.7509 30.7847 45.7543 27.4787 45.8599 25.4974C46.0471 22.0029 46.0687 21.9034 46.5824 22.1783C47.4648 22.6506 51.7075 23.4052 56.2251 23.8935L60.4978 24.3553L63.3688 21.964C67.028 18.9161 73.1928 14.296 76.4698 12.1456L79.0138 10.4763L79.966 10.8741C83.261 12.2509 90.748 18.3257 98.7236 26.0938L101.839 29.1279L103.751 28.6453C105.826 28.1214 111.622 27.792 113.584 28.0863L114.773 28.2645L113.62 29.6794C111.329 32.4927 110.189 35.8443 110.663 38.3734C110.759 38.885 111.485 40.2539 112.276 41.4154C114.616 44.8521 118.147 51.6657 120.476 57.2405L120.827 58.0798L118.851 58.8005C113.473 60.7619 109.193 65.287 109.568 68.6149C109.751 70.2403 110.793 71.7016 112.282 72.4226C115.274 73.8709 120.056 72.0654 125.988 67.2482L127.528 65.9975L127.354 67.026C126.307 73.1816 123.692 79.5651 120.266 84.3265C118.136 87.2869 112.731 92.3031 112.481 91.5516C112.426 91.3881 112.013 90.6973 111.562 90.0166C108.368 85.1944 100.434 85.7413 95.4324 91.1285C93.9985 92.6731 92.9886 94.5415 92.4314 96.6807C90.9973 102.187 93.5731 104.935 99.1415 103.841C100.254 103.622 101.19 103.463 101.221 103.488C101.352 103.593 98.3591 112.162 97.4714 114.224C96.1216 117.361 93.6011 122.109 91.9372 124.65C90.2692 127.197 87.5625 130.629 87.2209 130.629C86.8319 130.629 84.2257 124.949 83.0819 121.609C79.7729 111.944 79.632 102.224 82.6684 93.0827C83.8885 89.4095 84.7168 87.9349 87.5872 84.3265C95.0033 75.0034 97.9481 67.159 97.0753 59.052C96.0386 49.4232 90.9655 42.7262 83.1239 40.635C80.0634 39.8188 74.9352 39.8167 72.07 40.63C66.8475 42.1132 62.8044 45.5718 60.4248 50.5917C59.0596 53.4716 58.6179 55.6521 58.6294 59.4552C58.6509 66.5865 61.3649 74.4601 66.5818 82.5263C69.3001 86.7291 70.9298 90.0057 72.2006 93.8232C75.7981 104.63 75.7093 116.894 71.9241 132.01C70.4562 137.872 69.4423 141.211 69.1302 141.211C68.9465 141.211 68.0033 140.348 67.0342 139.293L67.0347 139.294ZM71.4566 65.3981L65.0311 57.8893L68.0912 54.9249C69.7742 53.2945 72.6514 50.2537 74.485 48.1675C76.3186 46.0813 77.8755 44.3744 77.9446 44.3744C78.0138 44.3744 78.3191 44.6905 78.623 45.0768C78.9268 45.4632 81.6019 48.6287 84.5674 52.1114C87.533 55.594 89.9004 58.5819 89.8282 58.7511C89.7225 58.9989 78.6962 72.0961 78.0599 72.7297C77.962 72.8271 74.9905 69.5279 71.4566 65.3981V65.3981Z" fill="black"/>
</svg>
