<svg width="153" height="153" viewBox="0 0 153 153" fill="none" xmlns="http://www.w3.org/2000/svg">
<path d="M81.605 139.049C75.0267 138.728 69.9816 137.831 69.3021 136.861C68.7859 136.124 68.8006 135.643 69.3585 135.026C69.7884 134.551 69.7798 134.465 69.1944 133.361C68.8215 132.658 67.7778 131.538 66.5605 130.534C61.8964 126.687 57.9887 122.471 55.3636 118.452C53.2162 115.165 53.7451 114.809 57.2745 117.167C68.0073 124.337 82.2762 128.1 96.8186 127.597C107.165 127.238 118.714 124.264 124.186 120.548C129.132 117.189 131.317 112.88 130.582 107.934C130.269 105.836 129.057 102.605 128.162 101.487L127.632 100.825L126.513 102.08C124.224 104.645 122.327 103.88 119.351 99.191C117.96 96.9992 116.543 96.001 114.477 95.7563C111.341 95.3849 109.718 97.1398 110.83 99.7007C111.115 100.359 110.426 100.301 109.522 99.5901C107.375 97.9009 107.673 93.3725 110.08 91.1159C112.18 89.148 116.429 88.4887 120.017 89.5741C122.418 90.3005 125.157 91.6546 127.266 93.1582C129.76 94.9362 132.695 98.2191 133.803 100.47C136.775 106.506 136.908 114.172 134.145 120.152C131.512 125.85 126.35 131.036 120.562 133.799C116.154 135.903 109.451 137.678 103.236 138.389C96.2603 139.187 88.978 139.409 81.6051 139.049H81.605ZM54.4535 129.412C53.563 129.069 52.3128 128.462 51.6754 128.062C47.0882 125.187 39.7266 118.345 36.1654 113.646L34.2515 111.12L33.954 107.692C33.6135 103.768 33.7608 101.089 34.5123 97.5406C34.8024 96.1706 34.9773 94.9873 34.901 94.911C34.6228 94.6328 32.2262 97.4927 31.5074 98.9605C31.1013 99.79 30.6065 101.245 30.4079 102.195C30.2092 103.144 29.9971 103.97 29.9364 104.031C29.7757 104.192 27.5152 98.8004 26.7063 96.3272C24.9312 90.9 24.1234 85.6815 24.1054 79.5262C24.0911 74.6137 24.6095 70.8839 25.7788 67.4852C26.0702 66.6384 26.2603 65.8974 26.2014 65.8384C25.8814 65.5185 20.5145 73.3066 18.4692 77.0589C17.8088 78.2704 17.1677 79.2616 17.0445 79.2616C16.4985 79.2616 15.7448 77.8018 15.5705 76.4066C15.3427 74.5837 15.7893 69.6386 16.5551 65.5033C17.1646 62.212 17.8294 60.6349 19.7798 57.8531C20.9575 56.1734 25.151 51.7449 25.5639 51.7449C25.6816 51.7449 25.778 51.6364 25.778 51.5038C25.778 51.1365 22.7623 51.9199 21.275 52.6735C20.5502 53.0408 19.9571 53.2298 19.9571 53.0934C19.9571 52.4277 21.761 47.8652 23.0044 45.3858C28.6142 34.2003 41.5499 22.0452 52.8549 17.3367C59.9115 14.3977 73.8645 11.9679 80.0436 12.602C83.5685 12.9637 88.6625 14.4506 89.1656 15.2647C89.464 15.7476 88.2261 16.5098 86.6321 16.8247C81.4614 17.8462 79.033 19.1497 74.3472 23.4186C69.7741 27.5847 65.1121 33.8065 63.1207 38.4009C61.9563 41.0873 59.0641 50.1677 58.4636 53.0222C57.974 55.3497 57.5295 60.945 57.5286 64.7913C57.5284 66.3642 57.4309 67.5912 57.3122 67.5178C57.1936 67.4445 55.7427 64.4592 54.088 60.8839C52.4334 57.3086 50.9952 54.4743 50.8921 54.5855C50.4908 55.0181 49.3455 58.6556 48.7008 61.545C47.7723 65.7064 47.376 70.0325 47.5869 73.7053C47.8488 78.2653 48.207 79.3107 48.2405 75.6131C48.2554 73.9703 48.3946 71.47 48.5498 70.0569C49.0773 65.2563 50.4092 60.2116 51.1494 60.2116C51.2955 60.2116 51.8079 61.0748 52.2881 62.1298C54.4321 66.8409 60.5148 77.0283 60.6518 76.1376C60.6964 75.8477 60.3603 73.7233 59.9049 71.4168C59.0959 67.3189 59.0793 67.084 59.1756 61.1376C59.2662 55.5451 59.3344 54.8092 60.0173 52.0522C60.5848 49.761 60.944 48.843 61.5375 48.167C63.3621 46.0889 70.9192 41.6283 75.2462 40.0755C76.7413 39.5389 76.8747 39.4385 76.3045 39.2796C75.9456 39.1795 74.1934 39.0858 72.4108 39.0713C70.6282 39.0568 69.1696 38.9364 69.1696 38.8039C69.1696 38.4605 70.6574 37.2539 71.7847 36.6829C73.3669 35.8815 79.1131 34.0302 82.5146 33.2259C86.0977 32.3786 89.5965 31.903 92.2545 31.9019C93.2368 31.9014 94.0405 31.8377 94.0405 31.7601C94.0405 31.3961 92.5646 28.7521 91.8671 27.8665C91.1604 26.9691 91.1309 26.8572 91.5579 26.6933C93.2223 26.0546 104.362 29.7458 108.903 32.4407C109.875 33.0171 110.722 33.4887 110.786 33.4887C110.85 33.4887 110.805 32.9827 110.685 32.3642C110.369 30.7296 110.398 28.786 110.743 28.5733C111.175 28.3061 120.038 37.37 122.211 40.3017C123.209 41.6478 124.118 42.7491 124.232 42.7491C124.345 42.7491 124.649 42.3919 124.906 41.9554C125.164 41.5188 125.453 41.1616 125.547 41.1616C125.641 41.1616 126.17 42.7987 126.722 44.7996C127.925 49.1604 128.758 51.1597 129.678 51.8951C130.191 52.3051 130.37 52.7021 130.392 53.4793C130.418 54.4306 130.559 54.6204 132.09 55.7765C134.126 57.3137 135.105 57.429 136.222 56.2628C136.63 55.8372 137.121 55.5493 137.313 55.6229C137.91 55.8522 138.533 58.1236 138.679 60.6085C138.936 64.959 137.597 68.3142 134.287 71.6114C131.707 74.1818 129.543 75.3035 126.785 75.5L124.864 75.6367L125.704 74.9294C126.712 74.08 127.907 71.7871 127.907 70.7034V69.9219L125.46 70.1512C124.114 70.2772 122.159 70.3824 121.116 70.3849C119.281 70.3889 119.16 70.3483 117.349 69.1107L115.477 67.8319L113.821 68.0201C101.101 69.4654 92.248 78.8518 91.7296 91.4422C91.6156 94.2108 91.6814 95.1088 92.1275 96.8728C93.6944 103.069 97.875 108.008 104.293 111.244C105.203 111.702 105.947 112.19 105.947 112.328C105.947 112.574 105.161 112.833 102.772 113.374C102.117 113.523 100.738 113.647 99.7067 113.651C97.945 113.657 97.7419 113.594 96.3294 112.605C94.8438 111.564 94.8334 111.561 95.4253 112.362C96.3719 113.642 99.7803 116.471 102.32 118.084C104.005 119.154 104.566 119.641 104.356 119.851C104.161 120.045 102.01 120.131 97.7966 120.115C92.7949 120.095 90.3024 119.946 85.4722 119.379C79.158 118.638 74.4081 117.686 73.2519 116.928C72.3517 116.338 67.9058 110.773 65.594 107.342L63.7456 104.599L63.6611 105.752C63.5511 107.253 64.6676 110.693 66.0113 112.992C66.9494 114.597 66.9865 114.731 66.4493 114.572C63.4532 113.683 53.5035 108.627 52.0782 107.269C51.5552 106.771 50.4089 104.675 48.9091 101.474C47.6168 98.716 46.4729 96.4595 46.3671 96.4595C45.6406 96.4595 45.8162 103.32 46.666 108.138C48.2248 116.975 51.2208 122.7 56.6277 127.173C57.7739 128.121 58.3216 128.762 58.3216 129.157C58.3216 130.249 56.8742 130.344 54.4534 129.412H54.4535ZM114.943 66.6886C114.943 66.6129 114.407 65.4842 113.752 64.1803C113.097 62.8765 112.561 61.6817 112.561 61.5252C112.561 61.041 115.446 59.935 118.43 59.2749C121.96 58.4942 122.5 58.2165 124.897 55.9476C126.72 54.2218 126.888 54.1257 128.092 54.1174L129.362 54.1084L128.738 53.588C127.706 52.7282 126.555 52.9138 124.993 54.1921C122.036 56.6125 121.424 56.813 112.635 58.2396C107.929 59.0033 106.777 59.2753 106.284 59.7381C105.442 60.5289 105.533 60.7368 106.58 60.4155C108.344 59.874 109.452 60.5991 110.97 63.2887C111.922 64.9752 113.74 66.826 114.445 66.826C114.719 66.826 114.943 66.7641 114.943 66.6884V66.6886ZM129.957 58.4753C129.673 55.9638 127.465 55.078 126.438 57.0642C126.077 57.7616 126.088 57.8635 126.58 58.355C127.181 58.9562 127.462 59.0039 128.17 58.625C128.796 58.2899 129.429 58.5287 129.635 59.1777C129.923 60.0852 130.096 59.7082 129.957 58.4753ZM120.712 53.4482L121.322 52.7391L121.962 53.34C122.887 54.2088 123.049 53.5166 122.342 51.7201C121.435 49.4188 120.057 47.3681 117.756 44.9C116.198 43.2284 115.469 42.2114 115.114 41.215C114.641 39.8844 114.344 39.5736 114.03 40.0811C113.621 40.7439 115.022 44.6721 116.321 46.5018C116.583 46.8707 116.515 47.07 115.922 47.6624C114.837 48.7475 115.056 50.7241 116.437 52.3032C116.771 52.6853 116.682 52.7467 115.575 52.8986C114.895 52.9917 113.85 53.0715 113.252 53.0759C112.292 53.0829 112.226 53.1205 112.694 53.3967C113.693 53.9877 116.134 54.38 118.118 54.2686C119.871 54.1702 120.173 54.0747 120.712 53.4482V53.4482Z" fill="black"/>
</svg>
