<?xml version="1.0" encoding="UTF-8" standalone="no"?>
<svg
   xmlns:dc="http://purl.org/dc/elements/1.1/"
   xmlns:cc="http://creativecommons.org/ns#"
   xmlns:rdf="http://www.w3.org/1999/02/22-rdf-syntax-ns#"
   xmlns:svg="http://www.w3.org/2000/svg"
   xmlns="http://www.w3.org/2000/svg"
   width="85.195831mm"
   height="83.07917mm"
   viewBox="0 0 85.195831 83.07917"
   version="1.1"
   id="svg8">
  <defs
     id="defs2" />
  <metadata
     id="metadata5">
    <rdf:RDF>
      <cc:Work
         rdf:about="">
        <dc:format>image/svg+xml</dc:format>
        <dc:type
           rdf:resource="http://purl.org/dc/dcmitype/StillImage" />
        <dc:title></dc:title>
      </cc:Work>
    </rdf:RDF>
  </metadata>
  <g
     id="layer1"
     transform="translate(-60.211609,-76.388985)">
    <path
       style="fill:#000000;stroke-width:0.264583"
       d="m 94.210566,157.52754 c -1.383463,-0.33812 -2.011084,-0.53758 -4.299479,-1.3664 -3.979195,-1.44121 -4.431577,-1.67647 -5.015436,-2.60832 -0.35465,-0.56602 -0.459597,-1.09738 -0.365802,-1.85208 0.413557,-3.32752 0.63664,-4.57485 0.909343,-5.0844 0.16759,-0.31314 0.304708,-0.77771 0.304708,-1.03238 0,-0.25466 0.234468,-0.94737 0.521041,-1.53935 0.401373,-0.82913 0.898702,-1.28395 2.165361,-1.9803 2.534861,-1.39355 3.603252,-2.4805 3.813008,-3.87924 0.09693,-0.64637 0.281556,-1.24031 0.410287,-1.31986 0.30507,-0.18855 0.304612,-2.41984 -5.29e-4,-2.60843 -0.129024,-0.0797 -0.314982,-0.57352 -0.41324,-1.09728 -0.115707,-0.61677 -0.574222,-1.34786 -1.301387,-2.07503 -0.926354,-0.92635 -1.402911,-1.17786 -2.724518,-1.43786 -1.560298,-0.30698 -1.808321,-0.28582 -3.33342,0.28436 -0.969353,0.3624 -1.703085,1.86034 -1.306882,2.66805 0.15672,0.31949 0.363714,0.86053 0.459986,1.20232 0.232547,0.82559 1.060825,1.62753 1.68099,1.62753 0.274918,0 0.767019,-0.21634 1.093555,-0.48075 0.498369,-0.40356 0.54556,-0.5707 0.293894,-1.04094 -0.73179,-1.36737 0.05037,-1.97062 1.440836,-1.11126 1.00743,0.62262 1.320287,1.64361 1.100674,3.59199 -0.182028,1.61495 -1.13711,2.6027 -3.436627,3.55416 -0.400183,0.16558 -0.727605,0.40848 -0.727605,0.53976 0,0.13129 -0.189989,0.2387 -0.422198,0.2387 -0.232209,0 -0.738224,0.16347 -1.124479,0.36327 -2.147863,1.11101 -2.501538,1.18123 -3.662606,0.72728 -1.34195,-0.52468 -1.917044,-1.0278 -3.786558,-3.31268 -1.044217,-1.27622 -1.505714,-2.0916 -1.634034,-2.88705 -0.496531,-3.07796 0.05173,-4.67232 2.439741,-7.09477 1.785969,-1.81174 2.970119,-2.44215 5.61246,-2.98794 4.26211,-0.88037 6.223543,-0.42005 8.768969,2.05793 2.390762,2.32742 3.223705,3.84862 4.511398,8.23917 0.256077,0.87313 0.631634,2.06773 0.834572,2.65468 0.260072,0.75219 0.368977,2.41413 0.368977,5.6307 0,3.70092 0.07111,4.59081 0.376201,4.70788 0.681344,0.26146 1.347478,-0.35917 1.832138,-1.70697 0.454905,-1.26502 0.492145,-3.18162 0.12658,-6.51349 -0.0704,-0.64201 0.0382,-0.82781 0.601545,-1.02916 1.00666,-0.35977 2.42659,-0.003 3.55434,0.89333 1.09833,0.87284 1.65102,0.98733 1.88041,0.38952 0.23308,-0.60738 -0.0833,-1.50386 -0.8365,-2.3705 -1.17662,-1.35379 -1.9727,-1.72616 -3.69825,-1.72988 -1.494185,-0.003 -1.614725,-0.0512 -2.050525,-0.81693 -0.25466,-0.44744 -0.46302,-0.92947 -0.46302,-1.07118 0,-0.23338 -0.40546,-1.2168 -1.474332,-3.5759 -0.207764,-0.45856 -0.377753,-0.91459 -0.377753,-1.01341 0,-0.47697 -3.377824,-5.02913 -4.647311,-6.26299 -1.417807,-1.37801 -1.438106,-1.41959 -1.438106,-2.94505 0,-0.85102 0.125659,-1.78211 0.279241,-2.06908 0.37197,-0.69503 0.07052,-1.56011 -0.543636,-1.56011 -0.579083,0 -1.471478,1.15887 -1.744242,2.26509 -0.438915,1.78008 -0.660842,1.89973 -3.75756,2.02597 -2.742297,0.11179 -2.917256,0.15634 -5.478595,1.39509 -2.77868,1.34387 -4.411177,2.71969 -6.203233,5.22791 -0.493861,0.69123 -1.030669,1.25677 -1.192906,1.25677 -0.162237,0 -0.496126,-0.34052 -0.741975,-0.75671 -0.24585,-0.41619 -0.918599,-1.18277 -1.494998,-1.70351 -2.033038,-1.83672 -4.264612,-5.11582 -4.674562,-6.86884 -0.09391,-0.40156 -0.276611,-0.79554 -0.406011,-0.87551 -0.1294,-0.08 -0.235273,-0.43363 -0.235273,-0.7859 0,-0.35227 -0.177655,-1.08938 -0.394788,-1.63803 -0.217134,-0.54864 -0.570293,-2.92875 -0.784799,-5.28912 -0.342803,-3.77212 -0.343055,-4.42467 -0.0021,-5.39108 0.213362,-0.60472 0.387928,-1.55375 0.387928,-2.10895 0,-0.5552 0.112183,-1.07878 0.249296,-1.16352 0.137113,-0.0847 0.322449,-0.71685 0.411857,-1.40468 0.08941,-0.68783 0.334412,-1.56663 0.544454,-1.952888 0.210041,-0.386255 0.381893,-0.944775 0.381893,-1.241156 0,-0.296381 0.105873,-0.604307 0.235273,-0.684281 0.1294,-0.07997 0.315738,-0.473953 0.414084,-0.875511 0.232094,-0.947668 1.567897,-3.788124 2.405331,-5.114706 0.782755,-1.239964 5.369584,-5.132702 6.867187,-5.828026 1.34408,-0.624045 2.619094,-0.623678 3.994926,0.0011 2.003825,0.910028 2.744203,2.690708 2.36862,5.696766 -0.203777,1.630976 -0.757936,1.984232 -1.217309,0.77599 -0.793333,-2.086613 -1.897679,-2.670027 -3.369608,-1.780119 -1.090319,0.659191 -3.029837,2.851252 -3.76593,4.256288 -0.361093,0.689245 -0.80536,1.412618 -0.987261,1.607497 -0.181901,0.194878 -0.33073,0.560132 -0.33073,0.811676 0,0.251543 -0.112234,0.57046 -0.249409,0.708705 -0.49973,0.503625 -1.060243,3.436985 -1.539464,8.056565 -0.224918,2.16815 0.199775,5.59562 0.873735,7.05144 0.212285,0.45855 0.385972,1.01707 0.385972,1.24116 0,0.22408 0.105872,0.47285 0.235273,0.55282 0.1294,0.08 0.314729,0.46199 0.411841,0.84891 0.247517,0.98619 2.38898,3.69547 3.633597,4.59707 2.00436,1.45195 3.546258,1.35267 5.21821,-0.336 1.455269,-1.46981 1.460753,-2.36715 0.02608,-4.26736 -0.582084,-0.77096 -1.058334,-1.5726 -1.058334,-1.78141 0,-0.2088 1.369219,-2.02241 3.042709,-4.03023 3.020274,-3.62367 3.042695,-3.66069 3.041078,-5.02027 -7.94e-4,-0.75332 -0.162735,-1.67841 -0.359637,-2.05575 -0.196906,-0.37734 -0.437444,-1.1095 -0.53453,-1.62701 -0.09709,-0.51752 -0.359368,-1.307463 -0.582846,-1.755436 -0.505896,-1.014094 -0.325307,-1.363295 1.366163,-2.64171 0.714796,-0.540243 1.335786,-1.21598 1.37998,-1.501639 0.0442,-0.285659 0.266985,-0.995629 0.495093,-1.577713 1.431555,-3.653029 2.522506,-5.251489 4.007676,-5.872032 0.785669,-0.328274 0.880007,-0.466744 0.741587,-1.088503 -0.516858,-2.321611 -0.498184,-3.17967 0.08991,-4.131224 0.321828,-0.52073 0.668824,-0.946782 0.771101,-0.946782 0.102277,0 0.401011,0.364055 0.663853,0.809011 0.695261,1.176985 1.683165,1.004723 2.155269,-0.375819 0.493371,-1.442731 1.490036,-2.374449 3.664931,-3.426108 3.409505,-1.648647 3.935225,-1.549639 2.248645,0.423489 -2.07363,2.425939 -1.8239,4.213849 0.39967,2.861394 1.20245,-0.731376 4.43524,-1.439714 5.91198,-1.295377 2.44472,0.238946 7.01912,3.195763 6.60671,4.270473 -0.1605,0.418258 -0.23922,0.422314 -0.96019,0.04948 -0.93776,-0.484933 -2.433,-0.531021 -2.8754,-0.08863 -0.63359,0.633589 -0.32333,1.176813 1.03565,1.813328 2.02433,0.948146 4.20479,4.109292 5.66151,8.207823 0.28083,0.790141 0.70164,1.370844 1.21175,1.672172 1.21543,0.717969 1.64274,1.551889 1.43259,2.795754 -0.099,0.586109 -0.27838,1.126429 -0.39858,1.200719 -0.1202,0.0743 -0.29879,0.61006 -0.39688,1.19062 -0.0981,0.58056 -0.2733,1.11425 -0.38936,1.18599 -0.11607,0.0717 -0.29266,0.67471 -0.39241,1.33995 -0.23313,1.55461 0.39495,2.83463 2.46061,5.01469 2.96778,3.13214 3.2821,3.534 3.2821,4.19627 0,0.36479 -0.25301,0.9849 -0.56224,1.37803 -0.72473,0.92134 -0.77924,3.15549 -0.0992,4.06648 1.26239,1.69115 1.69534,1.92808 3.31085,1.81179 0.96251,-0.0693 1.78162,-0.30144 2.22098,-0.62946 0.74896,-0.55918 3.75608,-5.27264 3.78219,-5.92832 0.009,-0.21828 0.18807,-0.72713 0.39862,-1.13077 0.21055,-0.40365 0.4552,-1.47521 0.54367,-2.38125 0.0885,-0.90605 0.28187,-2.20179 0.42977,-2.87943 0.2061,-0.94429 0.1636,-1.8713 -0.18197,-3.96875 -0.24798,-1.50517 -0.54139,-2.85574 -0.65201,-3.00126 -0.11062,-0.14552 -0.28448,-0.76997 -0.38635,-1.387677 -0.10188,-0.617701 -0.28044,-1.181932 -0.3968,-1.253848 -0.11636,-0.07192 -0.28999,-0.54879 -0.38584,-1.05972 -0.0958,-0.51093 -0.27848,-0.928964 -0.40585,-0.928964 -0.12736,0 -0.31002,-0.357187 -0.4059,-0.79375 -0.0959,-0.436562 -0.28394,-0.79375 -0.4179,-0.79375 -0.13396,0 -0.24356,-0.154377 -0.24356,-0.343061 0,-0.739264 -2.78682,-3.755785 -3.83957,-4.156038 -0.92543,-0.35185 -1.57052,0.01889 -2.46204,1.414979 -1.24713,1.952947 -2.13655,0.871564 -1.83807,-2.234781 0.30566,-3.181052 4.07026,-4.700372 7.30791,-2.949328 2.43121,1.314889 5.43125,4.600683 7.54917,8.268229 1.42931,2.475107 1.48451,2.590427 1.48631,3.105264 8e-4,0.256636 0.17949,0.807643 0.39688,1.224459 0.21738,0.416816 0.39524,1.105246 0.39524,1.529856 0,0.4246 0.1786,1.19944 0.39688,1.72186 0.21828,0.52242 0.39687,1.32305 0.39687,1.77918 0,0.45614 0.12861,1.24527 0.28581,1.75363 0.64038,2.071 -0.20755,10.07537 -1.35919,12.83054 -0.12165,0.29105 -0.4787,1.18401 -0.79345,1.98438 -0.65302,1.66057 -1.37786,3.24504 -1.5735,3.43958 -0.0732,0.0728 -0.47459,0.63583 -0.89205,1.25125 -0.41746,0.61543 -1.31009,1.56389 -1.98363,2.1077 -0.67354,0.5438 -1.28414,1.05786 -1.35691,1.14234 -0.21381,0.24826 -3.23991,2.48866 -4.06468,3.00932 -0.7276,0.45932 -0.79186,0.45958 -1.63336,0.006 -0.72961,-0.39293 -0.94565,-0.41389 -1.29312,-0.12552 -0.22944,0.19042 -0.41717,0.56417 -0.41717,0.83055 0,0.88622 -3.0409,1.3332 -5.37877,0.79062 -0.55723,-0.12933 -1.09097,-0.31296 -1.18609,-0.40807 -0.0951,-0.0951 -0.25923,-0.9092 -0.3647,-1.80908 -0.44217,-3.77251 -0.72396,-5.47114 -0.99012,-5.96847 -0.15532,-0.29022 -0.28313,-0.86292 -0.28403,-1.27267 -8e-4,-0.40975 -0.17949,-1.08603 -0.39688,-1.50284 -0.21738,-0.41683 -0.39524,-0.97259 -0.39524,-1.23504 0,-0.74361 -1.23113,-2.99681 -1.84136,-3.37005 -0.48679,-0.29774 -0.57663,-0.26343 -0.79173,0.30233 -0.24809,0.65251 -0.11455,1.65591 0.28971,2.17687 0.12431,0.16021 0.29516,0.87458 0.37967,1.5875 0.0845,0.71293 0.26011,1.53435 0.39022,1.82539 0.13011,0.29105 0.35309,1.30308 0.4955,2.24896 0.14242,0.94589 0.37602,2.34174 0.51913,3.10191 0.27947,1.48453 0.005,6.61673 -0.47816,8.93663 -0.78408,3.76581 -1.18287,4.72937 -5.08954,12.29761 -1.04221,2.01902 -4.60571,5.75122 -6.33229,6.63205 -1.97888,1.00956 -7.800469,1.52981 -10.295321,0.92006 z m 2.248959,-45.78395 c 1.576618,-1.17269 4.490785,-2.23435 6.148725,-2.24004 1.43312,-0.005 3.43521,0.75729 5.2225,1.98824 1.50054,1.03346 2.33898,1.11532 2.46477,0.24063 0.10754,-0.74783 -1.83899,-2.61794 -3.58434,-3.44363 -2.65509,-1.25606 -5.31989,-1.36514 -8.002695,-0.3276 -2.77996,1.07511 -5.219218,3.63943 -4.318618,4.54003 0.255508,0.25551 1.145608,-0.0703 2.069658,-0.75763 z m -3.463126,-4.66186 c 2.289868,-0.87628 2.052521,-1.67641 -1.167083,-3.93434 -0.509322,-0.3572 -1.390837,-1.15764 -1.958922,-1.77878 -0.568084,-0.62113 -1.196898,-1.12933 -1.397365,-1.12933 -0.562477,0 -0.720534,0.75112 -0.323688,1.53823 0.197085,0.3909 0.361566,1.38563 0.365511,2.21051 0.0059,1.2263 0.12778,1.63046 0.668631,2.21654 0.506611,0.54898 1.683782,1.28495 2.291562,1.4327 0.02341,0.006 0.708038,-0.24429 1.521354,-0.55553 z m 21.907061,-0.26802 c 0.67038,-0.3432 1.79669,-1.91767 1.79669,-2.51159 0,-0.28458 -0.13676,-0.65418 -0.30391,-0.82133 -0.22883,-0.22884 -0.19615,-0.46839 0.13229,-0.96966 0.52864,-0.8068 0.56475,-1.83579 0.0786,-2.23928 -0.28019,-0.23253 -0.62146,-0.0104 -1.57608,1.02594 -0.67015,0.72751 -1.31289,1.3255 -1.42831,1.32888 -0.21087,0.006 -1.83933,1.35809 -2.89008,2.3993 -0.82014,0.81271 -0.52316,1.50243 0.79232,1.84012 0.60178,0.15447 1.21322,0.32162 1.35874,0.37143 0.33101,0.11331 1.44113,-0.11734 2.03976,-0.42381 z m -14.75699,-1.77728 c 1.55496,-0.74028 3.119,-0.67001 4.33338,0.19471 1.81263,1.29071 2.58508,0.19128 1.11698,-1.58978 -0.88073,-1.06849 -2.24557,-1.81458 -3.31942,-1.81458 -1.06401,0 -3.803162,1.55509 -4.245358,2.41021 -0.333864,0.64562 -0.328303,0.78059 0.04765,1.15654 0.234093,0.23409 0.501093,0.38937 0.593343,0.34506 0.0922,-0.0443 0.75529,-0.36028 1.473425,-0.70216 z"
       id="path136" />
  </g>
</svg>
