<svg width="28" height="28" viewBox="0 0 28 28" fill="none" xmlns="http://www.w3.org/2000/svg">
<path d="M12.0509 11.1475C12.0509 11.1475 16.0138 10.8181 16.1168 14.534C16.2197 18.2499 12.5654 18.7644 10.3009 18.6616C8.03644 18.5585 3.25019 15.4193 3.61047 10.4269L3.88981 8.64895L4.68584 7.73348C4.68584 7.73348 6.51656 4.03201 10.6958 2.9177C10.6958 2.9177 11.0539 2.32073 11.4918 2.32073C11.9295 2.32073 12.2878 2.79826 12.9246 2.87788C13.5614 2.95751 13.8003 2.28091 14.3972 2.32073C14.9942 2.36054 15.034 2.79826 15.6708 2.9177C16.3076 3.03713 19.4121 3.39523 21.9194 6.81823C21.9194 6.81823 22.0388 7.69388 22.3969 7.85313C22.755 8.01238 23.5909 8.37048 23.7103 8.64917C23.8297 8.92785 24.6656 11.9127 24.586 13.1865C24.5063 14.46 24.1482 20.3904 20.2079 22.2211L20.1283 23.2956C20.1283 23.2956 17.183 25.9223 12.6855 25.604C8.18803 25.2858 6.97703 24.812 5.91959 23.3752C5.77391 23.1772 5.5615 22.4597 5.5615 22.4597L5.16359 21.6239C5.16359 21.6239 4.8055 21.0269 5.5615 21.1464C6.31772 21.2658 9.06391 22.3403 10.5763 22.3801C12.0888 22.4199 12.8848 21.6239 13.1633 21.5443C13.442 21.4646 15.0736 20.8279 15.5514 20.7482C16.0289 20.6686 18.9742 18.8665 19.4121 14.534C19.85 10.2014 15.9493 7.65407 13.7204 7.61426C13.7204 7.61426 12.3274 7.57445 12.0089 7.77351C11.6904 7.97257 9.62084 8.92764 8.70559 9.04707C8.70559 9.04707 7.94937 9.76348 8.06881 10.6391C8.18825 11.5148 8.18825 14.5285 11.3722 14.534C11.3722 14.534 12.1325 14.1236 12.0509 11.1475V11.1475Z" fill="black"/>
</svg>
