<?xml version="1.0" encoding="UTF-8" standalone="no"?>
<svg
   xmlns:dc="http://purl.org/dc/elements/1.1/"
   xmlns:cc="http://creativecommons.org/ns#"
   xmlns:rdf="http://www.w3.org/1999/02/22-rdf-syntax-ns#"
   xmlns:svg="http://www.w3.org/2000/svg"
   xmlns="http://www.w3.org/2000/svg"
   width="59.53125mm"
   height="59.53125mm"
   viewBox="0 0 59.53125 59.53125"
   version="1.1"
   id="svg8">
  <defs
     id="defs2" />
  <metadata
     id="metadata5">
    <rdf:RDF>
      <cc:Work
         rdf:about="">
        <dc:format>image/svg+xml</dc:format>
        <dc:type
           rdf:resource="http://purl.org/dc/dcmitype/StillImage" />
        <dc:title></dc:title>
      </cc:Work>
    </rdf:RDF>
  </metadata>
  <g
     id="layer1"
     transform="translate(-70.776039,-47.341518)">
    <path
       style="fill:#000000;stroke-width:0.264583"
       d="m 99.391767,101.48319 c -2.218582,-0.34814 -2.33299,-0.41152 -2.138868,-1.18497 0.144103,-0.574141 -0.138065,-0.952281 -2.120592,-2.841801 -3.134387,-2.987352 -4.9832,-5.744858 -2.833378,-4.225983 1.444426,1.020506 4.587154,2.447917 6.803945,3.090315 4.774796,1.383688 9.833736,1.423938 14.958016,0.119034 5.85284,-1.490441 8.33793,-4.625478 6.63696,-8.372798 -0.54798,-1.207225 -0.81209,-1.351706 -1.33004,-0.727604 -0.64746,0.780142 -1.46486,0.461743 -2.54715,-0.992188 -0.89018,-1.195848 -1.17394,-1.400638 -2.04002,-1.472282 -1.14888,-0.09503 -1.85787,0.352685 -1.67371,1.056923 0.19588,0.749023 -0.3346,0.566214 -0.63278,-0.218064 -0.39755,-1.045639 0.13604,-2.387491 1.16101,-2.91964 2.8346,-1.471689 7.95679,1.377328 9.04116,5.02879 0.97747,3.291496 0.23506,6.561339 -2.05986,9.072348 -2.09098,2.287859 -4.17705,3.36024 -8.23885,4.23533 -2.25163,0.4851 -10.68262,0.71402 -12.985843,0.35259 z m -8.73125,-3.870531 c -2.003223,-1.062892 -5.273087,-4.143267 -6.811277,-6.416556 -0.512967,-0.758111 -0.634981,-3.863118 -0.221733,-5.642658 0.126725,-0.545703 0.129943,-0.992187 0.0072,-0.992187 -0.339839,0 -1.473104,1.618477 -1.759993,2.513541 l -0.254415,0.79375 -0.589168,-1.574233 c -1.427918,-3.815342 -1.842586,-8.70784 -0.999005,-11.786868 0.219227,-0.800169 0.371858,-1.481589 0.339181,-1.514267 -0.118408,-0.118408 -2.001972,2.55104 -2.726561,3.864167 -0.408383,0.74009 -0.861578,1.308462 -1.007099,1.263054 -0.692103,-0.215968 -0.267017,-5.205399 0.598965,-7.03032 0.246114,-0.518648 1.014296,-1.531058 1.707071,-2.249799 0.692775,-0.718741 1.21666,-1.349733 1.164189,-1.402203 -0.05247,-0.05247 -0.572951,0.06913 -1.156624,0.27022 l -1.061224,0.365621 0.391984,-0.950602 c 1.069403,-2.593417 2.413828,-4.681687 4.338317,-6.738626 4.645662,-4.965393 8.615436,-6.940849 15.685345,-7.80541 2.25213,-0.275407 4.75177,-0.01522 5.95399,0.619742 l 0.6884,0.363583 -0.74482,0.285783 c -0.40966,0.157181 -0.92042,0.285783 -1.13502,0.285783 -1.46814,0 -5.385669,3.358862 -7.243732,6.210728 -1.819978,2.793409 -3.429367,8.451535 -3.450472,12.130813 -0.0062,1.089691 -0.02216,1.070715 -1.124479,-1.340828 -0.614976,-1.34539 -1.185692,-2.446718 -1.268257,-2.447396 -0.294027,-0.0024 -1.068843,2.933877 -1.272963,4.824105 -0.114126,1.056847 -0.125275,2.57638 -0.02478,3.376745 l 0.182727,1.455208 0.04648,-1.322916 c 0.06223,-1.770928 0.727643,-5.435663 1.044504,-5.752524 0.162103,-0.162103 0.320843,-0.02905 0.439151,0.368077 0.263859,0.885712 3.131448,5.770881 3.390843,5.776575 0.118947,0.0026 0.153878,-0.203613 0.07762,-0.458274 -0.758073,-2.531737 -0.839611,-7.390636 -0.162331,-9.673584 0.246107,-0.829571 0.624651,-1.219024 2.133789,-2.19528 1.009034,-0.652741 2.370631,-1.385466 3.025774,-1.628279 0.655143,-0.242812 1.191166,-0.534858 1.191166,-0.64899 0,-0.114132 -0.684608,-0.209519 -1.521353,-0.21197 l -1.521354,-0.0045 0.79375,-0.50762 c 1.115698,-0.713513 4.991087,-1.790019 7.242757,-2.011892 l 1.89664,-0.186891 -0.54555,-0.924645 c -0.30006,-0.508555 -0.50267,-0.967537 -0.45024,-1.019961 0.21598,-0.215979 4.15116,1.044314 5.78214,1.851806 l 1.75491,0.86885 -0.13341,-1.080887 -0.13342,-1.080886 1.51703,1.455209 c 0.83436,0.800364 1.99541,2.05052 2.5801,2.778125 0.58469,0.727604 1.24898,1.323322 1.4762,1.323818 0.27459,6.08e-4 0.56677,0.518434 0.87126,1.544155 0.25197,0.848789 0.64589,1.750728 0.87538,2.004307 0.22948,0.253579 0.41725,0.646344 0.41725,0.872811 0,0.866894 2.18275,1.698683 2.45527,0.935638 0.28371,-0.794389 0.58743,0.265424 0.58743,2.049778 0,1.733572 -0.0854,2.061126 -0.80475,3.084559 -0.81222,1.155653 -2.50292,2.327765 -3.36923,2.33579 -0.43515,0.004 -0.44003,-0.05324 -0.0661,-0.776259 0.65766,-1.271778 0.5597,-1.35995 -1.42136,-1.279334 -1.48665,0.0605 -1.9274,-0.01839 -2.37719,-0.425437 -1.09081,-0.987165 -4.84218,0.05974 -6.99862,1.953112 -2.7206,2.388719 -3.94082,7.123954 -2.61066,10.131015 0.69181,1.563941 2.24183,3.245149 3.82619,4.150013 1.1717,0.669182 1.23091,0.748001 0.67399,0.89716 -1.1184,0.299537 -2.60524,0.175929 -3.33185,-0.276987 l -0.71829,-0.447739 0.79375,0.873866 c 0.43656,0.480624 1.38906,1.289439 2.11666,1.797365 l 1.32292,0.923502 -3.70417,-0.152226 c -3.74949,-0.154085 -6.4361,-0.48619 -8.004378,-0.989459 -0.630577,-0.202354 -1.331826,-0.907167 -2.623342,-2.636669 -0.969489,-1.298268 -1.815846,-2.360488 -1.880792,-2.360488 -0.243299,0 0.268469,1.996811 0.757389,2.955171 l 0.50782,0.99541 -1.257514,-0.536789 c -0.691632,-0.295235 -1.972784,-0.935672 -2.847005,-1.423196 -1.478616,-0.824574 -1.662258,-1.035654 -2.632663,-3.026 -0.573744,-1.176777 -1.138395,-2.139596 -1.254779,-2.139596 -0.341162,0 -0.243503,2.697168 0.177292,4.896464 0.521519,2.725735 1.426793,4.60656 3.036366,6.308447 0.735479,0.777661 1.337234,1.491725 1.337234,1.586795 0,0.31725 -1.180806,0.1569 -1.984375,-0.26947 z M 114.59222,72.629368 c -0.30414,-0.596185 -0.49049,-1.146475 -0.4141,-1.222866 0.0764,-0.07639 0.94099,-0.361309 1.92134,-0.633151 1.16829,-0.323957 2.06556,-0.768667 2.60413,-1.290675 0.45194,-0.43803 1.09095,-0.796418 1.42003,-0.796418 0.33151,0 0.52541,-0.117988 0.43481,-0.264584 -0.2741,-0.443498 -1.34519,-0.295525 -1.84307,0.254623 -0.57579,0.636241 -1.56452,0.966536 -3.97776,1.328816 -2.8687,0.430652 -3.2523,0.537456 -3.41043,0.949543 -0.11199,0.291843 0.003,0.346354 0.47739,0.227177 0.50608,-0.127016 0.76573,0.0357 1.36692,0.856624 1.40628,1.920255 2.28548,2.285929 1.42074,0.590911 z m 6.01215,-3.084522 c -0.52145,-0.521454 -1.23656,-0.239886 -1.23656,0.486883 0,0.437973 0.12131,0.536605 0.5289,0.430018 0.2909,-0.07607 0.61552,-6.61e-4 0.72139,0.167579 0.1267,0.201331 0.22592,0.136931 0.29028,-0.188404 0.0538,-0.271862 -0.083,-0.675096 -0.30401,-0.896076 z m -3.35323,-1.155569 c 0,-0.205186 0.12267,-0.195172 0.39687,0.0324 1.14042,0.946466 -0.12317,-2.067146 -1.33126,-3.175 -0.39672,-0.363802 -0.91032,-1.078177 -1.14134,-1.5875 -0.41921,-0.924225 -0.42021,-0.924649 -0.51095,-0.216005 -0.05,0.390521 0.0984,1.076205 0.32987,1.523744 0.31762,0.614212 0.35167,0.942856 0.13886,1.340484 -0.19554,0.365367 -0.198,0.68359 -0.008,1.03855 0.40164,0.750485 0.35833,0.810746 -0.58601,0.815196 -0.65252,0.0031 -0.76418,0.0659 -0.46302,0.260531 0.56238,0.363438 3.175,0.33678 3.175,-0.0324 z"
       id="path24" />
  </g>
</svg>
