<svg width="26" height="26" viewBox="0 0 26 26" fill="none" xmlns="http://www.w3.org/2000/svg">
<path d="M11.1902 10.3513C11.1902 10.3513 14.87 10.0454 14.9656 13.4958C15.0611 16.9463 11.6679 17.4241 9.56515 17.3286C7.4624 17.2329 3.01803 14.3179 3.35258 9.68216L3.61197 8.03116L4.35114 7.18109C4.35114 7.18109 6.05109 3.74401 9.93179 2.70929C9.93179 2.70929 10.2643 2.15496 10.671 2.15496C11.0774 2.15496 11.4101 2.59838 12.0014 2.67232C12.5927 2.74626 12.8145 2.11799 13.3689 2.15496C13.9232 2.19193 13.9602 2.59838 14.5515 2.70929C15.1428 2.82019 18.0255 3.15271 20.3537 6.33121C20.3537 6.33121 20.4646 7.14432 20.7972 7.2922C21.1297 7.44007 21.9058 7.77259 22.0167 8.03137C22.1276 8.29015 22.9038 11.0618 22.8298 12.2446C22.7559 13.4272 22.4234 18.9339 18.7645 20.6339L18.6905 21.6316C18.6905 21.6316 15.9557 24.0707 11.7794 23.7752C7.60317 23.4796 6.47867 23.0397 5.49676 21.7055C5.36148 21.5217 5.16425 20.8555 5.16425 20.8555L4.79476 20.0793C4.79476 20.0793 4.46225 19.525 5.16425 19.6359C5.86645 19.7468 8.41648 20.7446 9.82089 20.7815C11.2253 20.8185 11.9645 20.0793 12.223 20.0054C12.4818 19.9314 13.9969 19.3401 14.4406 19.2662C14.884 19.1923 17.6189 17.5189 18.0255 13.4958C18.4322 9.47274 14.81 7.10735 12.7404 7.07038C12.7404 7.07038 11.4469 7.03341 11.1512 7.21826C10.8554 7.4031 8.93364 8.28995 8.08376 8.40085C8.08376 8.40085 7.38156 9.06609 7.49247 9.8792C7.60337 10.6923 7.60337 13.4908 10.5599 13.4958C10.5599 13.4958 11.2659 13.1148 11.1902 10.3513V10.3513Z" fill="black"/>
</svg>
