<?xml version="1.0" encoding="UTF-8" standalone="no"?>
<svg
   xmlns:dc="http://purl.org/dc/elements/1.1/"
   xmlns:cc="http://creativecommons.org/ns#"
   xmlns:rdf="http://www.w3.org/1999/02/22-rdf-syntax-ns#"
   xmlns:svg="http://www.w3.org/2000/svg"
   xmlns="http://www.w3.org/2000/svg"
   width="85.195831mm"
   height="83.07917mm"
   viewBox="0 0 85.195831 83.07917"
   version="1.1"
   id="svg8">
  <defs
     id="defs2" />
  <metadata
     id="metadata5">
    <rdf:RDF>
      <cc:Work
         rdf:about="">
        <dc:format>image/svg+xml</dc:format>
        <dc:type
           rdf:resource="http://purl.org/dc/dcmitype/StillImage" />
        <dc:title></dc:title>
      </cc:Work>
    </rdf:RDF>
  </metadata>
  <g
     id="layer1"
     transform="translate(-60.211609,-76.388985)">
    <path
       style="fill:#000000;stroke-width:0.264583"
       d="m 95.655904,157.68201 c -1.12802,-0.17532 -2.113087,-0.38092 -2.189041,-0.45687 -0.333613,-0.33361 0.24656,-0.96891 1.017164,-1.11382 1.084945,-0.204 2.949481,-1.83604 2.735291,-2.39421 -0.19764,-0.51505 -0.72466,-0.51862 -1.934532,-0.0131 -1.866043,0.77968 -6.764367,0.18929 -8.409379,-1.01357 -0.643329,-0.47042 -0.369538,-1.2354 0.442156,-1.2354 2.134939,0 5.947957,-3.8081 7.152973,-7.14375 0.658204,-1.82199 1.049988,-4.47554 0.857856,-5.81022 -0.442106,-3.07118 -2.22172,-5.34194 -6.950855,-8.8692 -1.271797,-0.94858 -2.669546,-1.99146 -3.106108,-2.31752 -3.696369,-2.76076 -6.412587,-6.47093 -7.895209,-10.78431 -0.749388,-2.18019 -1.311697,-6.06117 -1.152801,-7.95648 0.124815,-1.48879 0.07877,-1.81705 -0.273863,-1.95236 -0.637474,-0.24463 -0.80191,0.0775 -1.073941,2.10363 -0.332075,2.47339 0.02133,7.00642 0.709711,9.10334 0.560216,1.7065 1.81627,4.54639 2.117369,4.78729 0.09095,0.0728 0.511077,0.66807 0.93363,1.32292 0.42255,0.65484 1.928918,2.34511 3.347484,3.75616 l 2.579209,2.56554 -0.08215,4.77711 c -0.04518,2.62741 -0.123912,4.79947 -0.174961,4.82681 -0.37371,0.20014 -3.262603,-2.96295 -5.109987,-5.59499 -1.507861,-2.14831 -3.752093,-5.91273 -4.380435,-7.34763 -0.304239,-0.69477 -0.665203,-1.50134 -0.802143,-1.79238 -0.429315,-0.91244 -1.309625,-3.8818 -1.309625,-4.41748 0,-0.80192 -0.499582,-1.53564 -1.045594,-1.53564 -0.273795,0 -0.537496,0.11339 -0.586003,0.25199 -0.04851,0.13859 -0.676536,0.86471 -1.39562,1.61359 -1.253533,1.30547 -1.316519,1.33701 -1.528016,0.76528 -0.318644,-0.86137 0.004,-7.64462 0.462616,-9.7248 0.979733,-4.44422 2.417933,-8.19735 4.299166,-11.21911 0.748686,-1.202577 0.21311,-1.412087 -2.310104,-0.903677 -1.177288,0.237217 -2.257169,0.431307 -2.399735,0.431307 -0.529866,0 -0.223173,-0.752147 1.08661,-2.664867 2.968822,-4.335458 7.633871,-7.925159 12.455656,-9.584481 2.673157,-0.919913 5.199086,-1.303388 7.196291,-1.092508 2.448054,0.258485 7.259878,1.594229 9.693904,2.69099 5.653522,2.547456 8.919142,4.341879 11.049142,6.071379 l 1.12726,0.91531 -0.79653,0.96633 c -0.64193,0.77876 -0.79654,1.21397 -0.79654,2.2421 0,1.919927 1.23766,3.943407 2.96343,4.844997 0.90618,0.47341 3.8383,0.47064 4.69616,-0.004 0.77183,-0.42744 1.11815,-0.32085 2.21617,0.68202 0.45614,0.41663 0.95077,0.71762 1.09919,0.66887 0.43952,-0.14435 0.4521,-1.06579 0.0223,-1.63496 -0.21963,-0.29089 -1.2769,-1.71951 -2.34947,-3.17472 -2.45329,-3.328477 -4.72429,-5.475087 -8.51549,-8.049056 -0.87312,-0.592792 -1.7264,-1.078089 -1.89618,-1.078435 -0.16977,-3.44e-4 -0.34836,-0.08993 -0.39687,-0.199068 -0.096,-0.216072 -0.66095,-0.53378 -4.45382,-2.504821 C 99.371378,87.806871 93.358549,85.769111 89.107883,84.912477 84.163911,83.91612 72.73123,83.547311 68.275578,84.240443 c -2.720577,0.423219 -3.473717,0.226435 -2.171589,-0.567403 3.383086,-2.06249 6.558581,-3.421961 10.568478,-4.524505 2.961804,-0.814366 3.190446,-0.836794 8.598958,-0.843487 4.416835,-0.0055 6.039659,0.09408 7.913557,0.485441 2.871605,0.599726 6.304076,1.76703 8.393388,2.854399 2.09262,1.089089 2.43737,0.927574 2.19989,-1.030659 -0.10154,-0.837268 -0.28876,-1.722838 -0.41604,-1.967933 -0.30161,-0.580802 -0.29853,-1.803332 0.005,-1.803332 0.81731,0 3.80359,3.245262 8.15618,8.863542 3.69924,4.774937 4.91308,6.082079 5.45489,5.874168 0.3101,-0.118995 0.44046,-0.484705 0.44046,-1.235655 0,-0.87098 0.0921,-1.066638 0.50196,-1.066638 0.5369,0 2.73063,3.191918 4.72788,6.879172 2.66626,4.922337 4.89134,8.454267 6.34389,10.069857 1.43738,1.59871 2.20701,1.68383 4.47283,0.49468 1.8563,-0.97421 2.63942,-1.6657 2.8538,-2.51984 0.29781,-1.18656 1.09485,-0.77993 1.99394,1.01727 1.18401,2.36671 1.85337,5.18115 2.04049,8.57954 0.14985,2.72164 -0.19969,6.60399 -0.66279,7.36161 -0.089,0.14552 -0.41239,0.97896 -0.71876,1.85208 -0.82367,2.34744 -2.557,4.86767 -3.59914,5.23309 -0.32957,0.11556 -0.54564,-0.14638 -0.89514,-1.08517 -0.47846,-1.28519 -2.03321,-4.06986 -2.72213,-4.87552 -0.48661,-0.56907 -1.13561,-0.58048 -3.18304,-0.0559 -1.02273,0.26201 -2.45952,0.37986 -4.03205,0.33073 l -2.4431,-0.0763 -0.57435,-1.5875 c -1.16177,-3.21112 -2.37907,-4.7693 -5.15889,-6.60358 -2.65921,-1.75468 -5.37897,-2.59795 -8.82106,-2.735 -3.65502,-0.14552 -5.16808,0.28445 -7.1099,2.02042 -1.606332,1.43605 -3.063742,2.9977 -3.713852,3.97948 -0.25233,0.38106 -0.599512,0.69284 -0.771504,0.69284 -0.418738,0 -2.094018,-2.80303 -2.810354,-4.70221 -0.31682,-0.83996 -0.655963,-2.30732 -0.753647,-3.26079 -0.09769,-0.95348 -0.347364,-1.90334 -0.554834,-2.11082 -0.359865,-0.35986 -1.588545,-0.48294 -5.010864,-0.50194 -0.750282,-0.004 -1.45102,-0.0931 -1.557195,-0.19775 -0.449934,-0.44325 3.154114,-4.53965 4.232055,-4.8102 1.21733,-0.30553 1.133224,-1.36093 -0.169793,-2.13064 -0.790509,-0.46697 -0.804685,-0.50467 -0.322432,-0.857747 0.340482,-0.24927 1.129609,-0.35285 2.427989,-0.31869 1.057957,0.0278 1.983493,-0.009 2.056746,-0.0826 0.276603,-0.2766 -0.240951,-1.05269 -0.858615,-1.28753 -0.886542,-0.33706 -6.608689,-0.30836 -7.252843,0.0364 -0.707551,0.37867 -0.472811,1.00621 0.883872,2.362897 l 1.095052,1.09505 -1.472959,1.37182 c -0.810127,0.75451 -1.825125,1.84808 -2.255551,2.43016 -1.04312,1.41065 -2.262691,4.05669 -2.084168,4.52191 0.113937,0.29692 0.919779,0.37288 3.955454,0.37288 2.734379,0 3.886126,0.0935 4.073226,0.33073 0.143471,0.1819 0.338881,0.84195 0.434245,1.46676 0.09536,0.62483 0.276228,1.3392 0.401921,1.5875 0.125693,0.24831 0.498498,1.16585 0.82846,2.03897 0.7068,1.8703 2.454725,4.61786 3.85503,6.0597 l 0.995468,1.025 0.547011,-0.68245 c 0.30086,-0.37536 1.01838,-1.41927 1.59451,-2.31982 1.15764,-1.80953 2.597042,-3.40439 3.115012,-3.45144 1.3024,-0.11831 4.72826,1.0453 8.00832,2.72006 5.35747,2.73546 11.23112,8.3669 13.87613,13.30393 1.6374,3.05628 2.35524,7.35586 1.88027,11.26219 -0.16103,1.32443 -0.40282,2.60956 -0.5373,2.85586 -0.13448,0.24629 -0.43911,0.8873 -0.67697,1.42446 -0.7499,1.69351 -3.87412,4.52315 -6.43448,5.82777 -4.15368,2.11649 -7.27604,3.01903 -13.00244,3.75844 -4.3665,0.56381 -6.586142,0.63806 -8.79782,0.2943 z m 41.499206,-42.61397 c 0.0923,-0.36754 0.11763,-1.45501 0.0564,-2.4166 -0.12756,-2.00324 -0.71,-2.73597 -2.17481,-2.73597 -1.41801,0 -1.96384,1.06654 -0.99468,1.94362 0.26627,0.24097 0.87296,1.21192 1.3482,2.15767 0.91196,1.81484 1.48724,2.15752 1.76489,1.05128 z"
       id="path230" />
  </g>
</svg>
