<?xml version="1.0" encoding="UTF-8" standalone="no"?>
<svg
   xmlns:dc="http://purl.org/dc/elements/1.1/"
   xmlns:cc="http://creativecommons.org/ns#"
   xmlns:rdf="http://www.w3.org/1999/02/22-rdf-syntax-ns#"
   xmlns:svg="http://www.w3.org/2000/svg"
   xmlns="http://www.w3.org/2000/svg"
   width="85.195831mm"
   height="83.07917mm"
   viewBox="0 0 85.195831 83.07917"
   version="1.1"
   id="svg8">
  <defs
     id="defs2" />
  <metadata
     id="metadata5">
    <rdf:RDF>
      <cc:Work
         rdf:about="">
        <dc:format>image/svg+xml</dc:format>
        <dc:type
           rdf:resource="http://purl.org/dc/dcmitype/StillImage" />
        <dc:title></dc:title>
      </cc:Work>
    </rdf:RDF>
  </metadata>
  <g
     id="layer1"
     transform="translate(-60.211609,-76.388985)">
    <path
       style="fill:#000000;stroke-width:0.264583"
       d="m 107.52032,155.70728 c -8.109944,-8.29413 -8.216184,-8.42135 -9.058954,-10.84792 -0.53962,-1.5537 -0.59346,-2.16695 -0.55749,-6.35 0.0219,-2.54661 0.10309,-4.83224 0.18045,-5.07918 0.13145,-0.41966 0.17433,-0.42013 0.65643,-0.007 0.28369,0.2429 0.51579,0.58399 0.51579,0.75797 0,0.36655 1.119374,2.64085 1.658064,3.3688 0.57658,0.77914 1.44975,0.33976 1.7828,-0.89711 0.15272,-0.56716 0.39351,-1.10278 0.53507,-1.19028 0.14157,-0.0875 0.2574,-0.33033 0.2574,-0.53963 0,-0.2093 0.34776,-1.12501 0.77281,-2.0349 1.22566,-2.62375 1.72924,-5.75304 1.71388,-10.65019 -0.0148,-4.73471 -0.18795,-6.09122 -0.80764,-6.32902 -0.94993,-0.36452 -1.14989,0.30315 -1.14989,3.83958 0,3.77531 -0.0557,3.85452 -1.62928,2.31632 -0.87092,-0.85137 -1.08878,-0.9066 -1.52114,-0.38564 -0.23769,0.28639 -0.16716,0.53401 0.3203,1.12448 1.39732,1.69263 2.03631,2.88502 2.03379,3.79519 -0.001,0.51192 -0.38837,2.14434 -0.85989,3.62759 -0.73308,2.30604 -0.91482,2.6511 -1.25419,2.38125 -0.99085,-0.78788 -2.019484,-4.01853 -1.879144,-5.90191 0.0784,-1.05162 -0.59665,-1.79933 -1.2896,-1.42847 -0.88071,0.47134 -2.6368,6.44505 -2.64548,8.99918 -0.006,1.71092 -0.48976,7.22161 -0.69308,7.89208 -0.0688,0.22673 -0.36429,0.039 -0.83285,-0.52917 -0.92245,-1.11847 -1.1817,-1.4315 -1.58447,-1.91319 -0.39271,-0.46964 -0.87463,-2.23447 -1.05465,-3.86222 -0.12859,-1.1627 -0.45594,-1.85208 -0.87946,-1.85208 -0.33419,0 -1.3121,1.72763 -1.3121,2.31803 0,0.29467 -0.16936,0.60076 -0.37635,0.68019 -0.207,0.0794 -0.43863,0.41959 -0.51475,0.75591 -0.16483,0.72827 0.0265,-2.54258 0.3124,-5.34163 0.1115,-1.09141 0.3412,-2.2225 0.51046,-2.51354 0.16926,-0.29104 0.73207,-1.40285 1.2507,-2.47067 0.51863,-1.06783 1.11959,-2.11813 1.33546,-2.33401 0.21588,-0.21587 0.3925,-0.62212 0.3925,-0.90276 0,-1.01132 -1.54911,-0.51334 -3.12776,1.00544 -0.40245,0.3872 -0.75117,0.43117 -0.94408,0.11904 -0.17579,-0.28444 2.33797,-5.41826 3.35177,-6.84526 1.25434,-1.76558 0.61288,-2.44405 -1.32749,-1.40407 -0.54302,0.29104 -1.13791,0.52916 -1.32196,0.52916 -0.18406,0 -0.33465,0.11906 -0.33465,0.26459 0,0.14552 -0.19036,0.26458 -0.42303,0.26458 -0.42596,0 -1.71784,0.50225 -3.10414,1.20681 -0.41197,0.20938 -0.91024,0.38069 -1.10725,0.38069 -0.19702,0 -0.69339,0.13994 -1.10304,0.31098 -0.40966,0.17104 -1.34014,0.45746 -2.06775,0.63651 -0.7276,0.17904 -2.09682,0.52044 -3.04271,0.75865 -0.94588,0.23822 -2.43416,0.54776 -3.30729,0.68787 -0.87312,0.14011 -1.76609,0.33419 -1.98437,0.43128 -0.71343,0.31734 -3.0319,0.75738 -3.50573,0.66539 -0.25466,-0.0494 -0.46302,-0.18818 -0.46302,-0.3083 0,-0.12013 1.48785,-1.45085 3.30633,-2.95717 3.66149,-3.03295 5.47931,-4.09071 9.92283,-5.77397 0.80037,-0.30319 1.69334,-0.65444 1.98438,-0.78055 0.76969,-0.33353 2.62858,-0.94879 4.89479,-1.62011 3.58502,-1.06198 5.01966,-1.86593 6.61458,-3.70673 3.01867,-3.48402 3.35362,-3.69756 6.094524,-3.88543 2.50409,-0.17163 2.96525,-0.38282 2.296,-1.05146 -0.39971,-0.39935 -0.93274,-0.4705 -3.439574,-0.45913 -3.71376,0.0169 -4.74964,0.36074 -5.93673,1.97092 -1.71622,2.32792 -3.82107,4.23333 -4.67643,4.23333 -0.21558,0 -0.45989,0.1099 -0.54291,0.24423 -0.083,0.13432 -0.51479,0.32414 -0.95948,0.42181 -0.4447,0.0977 -1.12794,0.34423 -1.51832,0.54789 -0.39038,0.20367 -0.845,0.37105 -1.01027,0.37194 -0.16526,8e-4 -0.64151,0.17949 -1.05833,0.39688 -0.41682,0.21738 -0.95918,0.39598 -1.20526,0.39687 -0.24607,9e-4 -0.52099,0.12069 -0.61092,0.26622 -0.0899,0.14552 -0.34162,0.26458 -0.5593,0.26458 -0.21768,0 -0.95479,0.24462 -1.63803,0.54361 -0.68324,0.29899 -1.48038,0.63999 -1.77142,0.75779 -0.29105,0.11779 -1.07799,0.46848 -1.74878,0.7793 -0.67078,0.31082 -1.29376,0.56513 -1.3844,0.56513 -0.0906,0 -0.97056,0.49116 -1.95539,1.09147 -3.81917,2.32798 -7.57609,5.73078 -8.95741,8.11311 -0.3975,0.68555 -0.92764,1.51231 -1.17809,1.83724 -0.44689,0.57978 -0.46152,0.55118 -0.78635,-1.53692 -0.3192,-2.05191 -0.27395,-2.83535 0.38858,-6.72677 0.10342,-0.60749 0.74055,-2.31628 0.93746,-2.51429 0.0728,-0.0732 0.41605,-0.66848 0.76286,-1.32291 0.71884,-1.35644 2.84294,-4.63282 3.51591,-5.42322 0.2478,-0.29104 0.84497,-1.02766 1.32704,-1.63694 0.48206,-0.60927 1.4718,-1.55706 2.1994,-2.10619 0.7276,-0.54914 1.83921,-1.47939 2.47023,-2.06723 0.63102,-0.58784 1.37516,-1.15427 1.65365,-1.25872 0.60783,-0.22798 0.68348,-1.423787 0.13923,-2.200827 -0.65719,-0.93827 -1.08499,-2.745293 -0.73321,-3.097076 0.2389,-0.238892 0.40892,-0.172328 0.72972,0.285689 0.33172,0.473598 0.49545,0.533094 0.7913,0.287556 0.20517,-0.170277 0.37304,-0.526113 0.37304,-0.790749 0,-0.264635 0.11906,-0.554739 0.26458,-0.644676 0.14552,-0.08994 0.26458,-0.465923 0.26458,-0.835524 0,-0.369602 0.19792,-1.106716 0.43981,-1.638031 0.74236,-1.630616 3.02069,-5.331653 3.28212,-5.331653 0.13575,0 0.24682,0.47625 0.24682,1.058333 0,0.927226 0.0752,1.058334 0.60709,1.058334 0.42144,0 0.92715,-0.421495 1.65365,-1.378268 1.63434,-2.152348 3.26729,-3.704676 5.27989,-5.019196 3.77612,-2.466359 4.89505,-2.812867 10.05417,-3.113553 4.484264,-0.261354 5.359754,-0.465876 7.488124,-1.749301 2.123,-1.280183 2.43374,-1.227527 2.43374,0.412401 v 1.322917 h 2.39768 c 2.48171,0 4.32798,-0.41013 6.13513,-1.362862 1.54181,-0.812836 1.29395,0.0018 -0.59531,1.95663 -0.87312,0.903427 -1.5875,1.839405 -1.5875,2.07995 0,0.334391 0.42046,0.506875 1.78594,0.732649 4.02978,0.666301 4.66582,0.841326 6.75195,1.858009 2.39534,1.167377 5.32336,3.053207 7.13551,4.595725 0.64391,0.548108 1.36719,1.14342 1.60728,1.322916 0.2638,0.197217 0.35316,0.458231 0.22585,0.659622 -0.15828,0.250377 -0.71149,0.06941 -2.22428,-0.727604 -1.10747,-0.583478 -2.18649,-1.060869 -2.39781,-1.060869 -0.21133,0 -0.53245,-0.178593 -0.7136,-0.396875 -0.18116,-0.218281 -0.60281,-0.396875 -0.937,-0.396875 -0.33419,0 -0.94469,-0.16538 -1.35667,-0.367511 -1.04434,-0.512396 -2.45656,-0.991276 -3.39488,-1.151192 -0.43656,-0.0744 -0.91281,-0.222965 -1.05833,-0.330138 -0.57069,-0.420302 -1.65042,-0.50918 -2.10931,-0.173629 -0.42115,0.307954 -0.43352,0.42217 -0.10893,1.006176 0.45467,0.818043 2.49785,3.964705 2.80738,4.323586 0.82879,0.960932 1.46273,2.00507 1.31007,2.157735 -0.0989,0.09893 -0.59801,0.05154 -1.10907,-0.105312 -0.80643,-0.2475 -0.96372,-0.220696 -1.1904,0.202866 -0.14366,0.268426 -0.2612,0.562873 -0.2612,0.654327 0,0.281864 3.39007,1.720592 4.05423,1.720592 0.72347,0 1.50202,0.749984 1.50202,1.446911 0,0.42381 -0.17159,0.4615 -1.48428,0.32601 -1.78344,-0.18406 -4.99684,-1.191257 -7.12506,-2.233241 -0.87448,-0.428148 -1.73818,-0.380358 -1.89981,0.105119 -0.0561,0.168441 0.43767,0.913854 1.09722,1.656472 0.65955,0.74262 1.40481,1.7359 1.65613,2.207287 0.73901,1.38613 1.66784,3.73156 1.66916,4.21489 0.002,0.55495 0.35681,0.79322 0.88219,0.59161 0.65792,-0.25247 0.25493,-2.89191 -0.64137,-4.2008 -0.9748,-1.423527 -0.65278,-1.696307 1.27826,-1.082837 2.13401,0.677957 7.70272,0.962047 8.01219,0.408747 0.21301,-0.380817 -0.62357,-2.129697 -1.11826,-2.337737 -0.11533,-0.0485 -0.2097,-0.25095 -0.2097,-0.449874 0,-0.198923 -0.14883,-0.456892 -0.33073,-0.573264 -0.37134,-0.237565 -0.86604,-0.975246 -1.25086,-1.86523 -0.14157,-0.327422 -0.3665,-0.595313 -0.49985,-0.595313 -0.13334,0 -0.31637,-0.294522 -0.40671,-0.654494 -0.0903,-0.359972 -0.63904,-1.124542 -1.21931,-1.699043 -0.58027,-0.574502 -1.05504,-1.23248 -1.05504,-1.462173 0,-0.489002 0.0386,-0.494113 1.29222,-0.171128 3.90671,1.006528 5.53481,1.567779 7.9682,2.746861 4.35052,2.10802 6.0199,2.650652 9.12812,2.967099 1.01865,0.103708 2.01472,0.276007 2.2135,0.382888 0.58566,0.314905 -1.7311,1.280222 -3.64041,1.516831 -2.0601,0.2553 -2.60506,0.80684 -1.63151,1.6512 0.34422,0.29853 0.72205,0.542787 0.83964,0.542787 0.11758,0 0.45672,0.26076 0.75364,0.57947 0.64265,0.6898 0.34136,0.99775 -0.98226,1.00398 -0.52319,0.002 -1.08286,0.22702 -1.42932,0.57348 -0.5358,0.53581 -0.54211,0.58939 -0.10678,0.90771 0.70616,0.51636 3.66034,0.7603 4.4018,0.36348 0.7894,-0.42247 2.02389,-0.38894 2.58486,0.0702 0.24003,0.19647 1.35774,0.82917 2.4838,1.406 1.75175,0.89736 1.9855,1.09487 1.61889,1.36795 -0.30571,0.22772 -1.30925,0.27641 -3.50258,0.16994 -5.40775,-0.26251 -7.23633,-0.65704 -10.20376,-2.20156 -1.95418,-1.01713 -2.77817,-1.2561 -3.1273,-0.90698 -0.18266,0.18266 0.33357,1.42881 0.59191,1.42881 0.3802,0 1.92405,1.74597 2.38204,2.69389 0.48171,0.99704 0.48116,1.01028 -0.0424,1.01028 -0.29179,0 -1.5249,-0.65484 -2.74024,-1.45521 -1.21534,-0.80036 -2.32228,-1.45521 -2.45986,-1.45521 -0.23432,0 -0.57136,0.60458 -0.57136,1.02489 0,0.10333 0.76148,1.01167 1.69217,2.01854 1.09999,1.19002 2.18795,2.06723 3.10886,2.50664 1.36901,0.65323 1.41951,0.71564 1.50089,1.85459 0.0463,0.64824 -0.0499,1.65839 -0.21391,2.24479 -0.16396,0.5864 -0.40165,1.95915 -0.52819,3.05055 -0.12654,1.09141 -0.39341,2.5512 -0.59305,3.24399 -0.36031,1.25038 -0.36675,1.2558 -0.87893,0.74031 -0.84019,-0.84564 -1.10241,-1.21449 -1.29517,-1.82181 -0.10037,-0.31624 -0.27965,-0.57499 -0.39839,-0.57499 -0.11874,0 -0.28087,-0.24848 -0.36029,-0.55218 -0.19023,-0.72744 -1.07951,-0.56748 -1.1912,0.21427 -0.0458,0.32049 0.0917,0.97412 0.3056,1.4525 0.34112,0.76302 0.96828,5.24131 0.96828,6.91412 0,0.33077 -0.1601,0.82034 -0.35577,1.08794 -0.34247,0.46835 -0.40427,0.46284 -1.65364,-0.14762 -0.71384,-0.34879 -1.35741,-0.70833 -1.43017,-0.79897 -0.28694,-0.35746 -2.67791,-1.3023 -2.91881,-1.15342 -0.50069,0.30945 -0.2393,1.0626 0.59508,1.71461 0.46555,0.3638 1.72289,1.54317 2.79408,2.6208 2.08581,2.09837 2.18038,2.40357 1.20569,3.89112 l -0.4167,0.63597 -1.02731,-0.92811 c -0.9771,-0.88275 -2.14191,-1.21217 -2.46093,-0.69599 -0.0789,0.12767 0.39948,1.0504 1.06308,2.05052 1.10178,1.6605 1.19469,1.92484 1.07003,3.04414 -0.14704,1.3202 -2.15565,4.85783 -5.00247,8.81051 -0.13347,0.18531 -0.33828,0.1058 -0.59531,-0.23109 -0.44637,-0.58505 -0.5023,-2.42084 -0.12139,-3.98433 0.3257,-1.33687 0.87472,-6.94127 0.8683,-8.86354 -0.006,-1.67066 -0.40977,-3.61018 -0.84254,-4.04295 -0.16292,-0.16292 -0.29622,-0.58577 -0.29622,-0.93967 0,-0.673 -0.94807,-2.42571 -1.3121,-2.42571 -0.49378,0 -0.76474,0.77741 -0.87609,2.51354 -0.16675,2.59979 -0.65936,5.39179 -1.14371,6.48229 -0.80782,1.81876 -1.30288,2.77497 -1.6046,3.09928 -0.16846,0.18108 -0.52565,0.8049 -0.79375,1.38627 -0.2681,0.58138 -0.62756,1.06012 -0.79879,1.06388 -0.17123,0.004 -0.34982,0.20594 -0.39687,0.44931 -0.047,0.24337 -0.0928,-1.09608 -0.10176,-2.97656 -0.0123,-2.60049 -0.12317,-3.66433 -0.46302,-4.44355 -0.24574,-0.56348 -0.44748,-1.21832 -0.44829,-1.45521 -0.003,-0.94991 -0.57923,-2.42405 -1.0444,-2.673 -0.8311,-0.4448 -1.53874,1.09077 -2.55742,5.54958 -0.4472,1.95744 -0.4948,2.92014 -0.26289,5.31768 0.11304,1.16871 0.0862,1.5146 -0.0867,1.11576 -0.28564,-0.65893 -1.22252,-1.24483 -1.6088,-1.0061 -0.43401,0.26823 -0.28971,3.36421 0.25631,5.49914 0.53616,2.09637 1.7888,4.94852 2.17334,4.94852 0.12191,0 0.22165,0.11906 0.22165,0.26458 0,0.37954 -0.54957,0.32605 -1.0375,-0.10099 -0.22974,-0.20107 -0.68618,-0.4474 -1.01432,-0.54741 -0.92981,-0.28338 -0.99539,0.44509 -0.15739,1.74826 1.21057,1.88256 2.248,3.9351 2.15962,4.27276 -0.0455,0.17376 -1.30509,-0.93423 -2.79913,-2.4622 z M 79.882856,103.50613 c 0.56203,-0.33161 0.8292,-0.66013 0.73547,-0.90437 -0.081,-0.21098 -0.1472,-0.49291 -0.1472,-0.62653 0,-0.13362 -0.70762,-0.24295 -1.57249,-0.24295 -1.31106,0 -1.63901,0.0949 -1.97252,0.57112 -0.36373,0.51928 -0.35142,0.63938 0.13561,1.32335 0.60351,0.84755 1.22527,0.82096 2.82113,-0.12062 z m 6.93827,-3.942657 c 0.65485,0.003 1.905,0.0854 2.77813,0.18402 1.81054,0.20453 3.23209,-0.27047 4.95879,-1.65693 0.86518,-0.694698 0.93866,-0.837608 0.58261,-1.133105 -0.33377,-0.277 -0.57422,-0.258615 -1.32975,0.101675 -0.50727,0.241901 -0.9778,0.439819 -1.04563,0.439819 -0.30711,0 -0.0603,-0.535673 0.67044,-1.455208 0.55364,-0.696662 0.79375,-1.290141 0.79375,-1.961885 0,-1.052482 -0.60772,-2.139157 -1.19632,-2.139157 -0.20491,0 -0.49417,-0.227232 -0.64281,-0.504959 -0.22307,-0.416813 -0.11217,-0.64375 0.6353,-1.300036 0.49804,-0.437293 0.94289,-1.013733 0.98854,-1.280978 0.11543,-0.675763 -0.88116,-0.774485 -1.81959,-0.180248 -1.24095,0.785809 -3.25679,3.086444 -3.25679,3.71691 0,0.188684 -0.10741,0.343061 -0.2387,0.343061 -0.13128,0 -0.35801,0.327422 -0.50383,0.727604 -0.29013,0.796235 -1.39892,2.069549 -2.4252,2.785056 -0.42055,0.293204 -1.15907,0.45609 -2.06791,0.45609 -3.16382,0 -3.30271,1.229141 -0.32061,2.837481 0.39805,0.21468 0.97755,0.28892 1.45521,0.18642 0.43656,-0.0937 1.32953,-0.16821 1.98437,-0.16563 z"
       id="path170" />
  </g>
</svg>
