<?xml version="1.0" encoding="UTF-8" standalone="no"?>
<svg
   xmlns:dc="http://purl.org/dc/elements/1.1/"
   xmlns:cc="http://creativecommons.org/ns#"
   xmlns:rdf="http://www.w3.org/1999/02/22-rdf-syntax-ns#"
   xmlns:svg="http://www.w3.org/2000/svg"
   xmlns="http://www.w3.org/2000/svg"
   width="85.195831mm"
   height="83.07917mm"
   viewBox="0 0 85.195831 83.07917"
   version="1.1"
   id="svg8">
  <defs
     id="defs2" />
  <metadata
     id="metadata5">
    <rdf:RDF>
      <cc:Work
         rdf:about="">
        <dc:format>image/svg+xml</dc:format>
        <dc:type
           rdf:resource="http://purl.org/dc/dcmitype/StillImage" />
        <dc:title></dc:title>
      </cc:Work>
    </rdf:RDF>
  </metadata>
  <g
     id="layer1"
     transform="translate(-60.211609,-76.388985)">
    <path
       style="fill:#000000;stroke-width:0.264583"
       d="m 96.667411,156.16971 c -0.509323,-0.19633 -1.246437,-0.36369 -1.63803,-0.3719 -0.391594,-0.008 -0.777423,-0.12081 -0.857396,-0.25021 -0.07998,-0.1294 -0.473953,-0.3121 -0.875511,-0.40601 -0.401559,-0.0939 -1.087292,-0.33783 -1.523855,-0.54205 -0.436562,-0.20423 -1.358638,-0.62714 -2.049055,-0.9398 -0.690417,-0.31267 -1.322522,-0.67724 -1.404675,-0.81017 -0.08216,-0.13294 -0.380474,-0.24169 -0.662927,-0.24169 -0.282453,0 -0.513551,-0.10915 -0.513551,-0.24254 0,-0.13339 -0.327422,-0.36212 -0.727604,-0.50828 -0.677974,-0.24761 -0.645488,-0.26717 0.47625,-0.28663 0.662119,-0.0115 1.352547,0.12794 1.534281,0.30984 0.439545,0.43995 8.69831,0.47275 8.978776,0.0357 0.104137,-0.16229 0.427463,-0.37364 0.718505,-0.46967 0.630116,-0.20791 1.364096,-1.16136 1.591486,-2.06735 0.27021,-1.07663 -1.243411,-2.77821 -3.443569,-3.87117 -1.018646,-0.50602 -2.16811,-1.08004 -2.554365,-1.27558 -0.386254,-0.19554 -0.951801,-0.35553 -1.25677,-0.35553 -0.30497,0 -0.55449,-0.10961 -0.55449,-0.24356 0,-0.13396 -0.365207,-0.32378 -0.811573,-0.42182 -0.446365,-0.098 -1.130974,-0.34489 -1.521354,-0.54856 -0.390379,-0.20366 -0.844999,-0.37104 -1.010266,-0.37193 -0.165267,-8e-4 -0.641517,-0.1795 -1.058333,-0.39688 -0.416817,-0.21738 -0.936443,-0.39976 -1.154724,-0.40529 -0.218281,-0.006 -0.627991,-0.18485 -0.910466,-0.3985 -0.282474,-0.21366 -0.78849,-0.38846 -1.124479,-0.38846 -0.335989,0 -0.610888,-0.1168 -0.610888,-0.25955 0,-0.14275 -0.299117,-0.33461 -0.664702,-0.42637 -1.821606,-0.45719 -7.716616,-3.92885 -9.604232,-5.65606 -0.481924,-0.44098 -0.928408,-0.80177 -0.992187,-0.80177 -0.180344,0 -0.943894,-0.82505 -2.091364,-2.2598 -0.57715,-0.72164 -1.11293,-1.37161 -1.19063,-1.44437 -0.22622,-0.21186 -0.79303,-1.15549 -0.95356,-1.5875 -0.0811,-0.21828 -0.31087,-0.75406 -0.51058,-1.19063 -0.52197,-1.14103 -0.735,-2.43687 -0.43145,-2.62447 0.14356,-0.0887 0.33715,0.0785 0.43019,0.37168 0.093,0.29316 0.28021,0.53301 0.41593,0.53301 0.13571,0 0.24675,0.15564 0.24675,0.34587 0,0.57639 2.24939,3.19194 3.3947,3.94729 1.118999,0.738 1.998721,0.60008 2.831031,-0.44383 l 0.728061,-0.91316 1.337843,1.31004 c 0.735814,0.72052 1.49293,1.31003 1.68248,1.31003 0.18955,0 0.344636,0.10199 0.344636,0.22665 0,0.24187 2.825646,2.1546 3.182958,2.1546 0.11689,0 0.252216,0.0971 0.300723,0.21588 0.04851,0.11874 1.397882,0.84781 2.998611,1.62017 1.600729,0.77235 3.226443,1.56817 3.612697,1.76849 0.386255,0.20032 0.882621,0.36421 1.103038,0.36421 0.220416,0 0.737827,0.17131 1.149802,0.38069 1.427128,0.72531 2.683372,1.20685 3.170282,1.21523 0.26905,0.005 0.720297,0.18322 1.002771,0.39687 0.282475,0.21365 0.758725,0.39225 1.058334,0.39688 0.299608,0.005 0.775858,0.18322 1.058333,0.39687 0.282474,0.21365 0.728959,0.38846 0.992187,0.38846 0.263225,0 0.478595,0.11104 0.478595,0.24676 0,0.13571 0.26603,0.33118 0.59118,0.43438 0.746555,0.23695 3.684545,3.19134 4.087965,4.11079 0.16672,0.37999 0.56032,0.75814 0.87465,0.84034 0.5365,0.1403 0.56101,0.0817 0.39995,-0.95547 -0.24378,-1.56993 -0.39812,-2.03096 -0.67991,-2.03096 -0.13571,0 -0.24675,-0.17445 -0.24675,-0.38766 0,-0.4665 -2.3644,-2.78734 -2.83965,-2.78734 -0.18445,0 -0.33535,-0.10742 -0.33535,-0.2387 0,-0.13129 -0.32743,-0.36769 -0.727605,-0.52535 -0.40018,-0.15765 -0.9062,-0.39051 -1.12448,-0.51746 -1.219439,-0.70921 -2.121848,-1.10071 -2.554362,-1.10816 -0.268589,-0.005 -0.71946,-0.18322 -1.001935,-0.39687 -0.282474,-0.21366 -0.715348,-0.38846 -0.961943,-0.38846 -0.246594,0 -0.789384,-0.17787 -1.206201,-0.39525 -0.416816,-0.21738 -0.952597,-0.39598 -1.190625,-0.39687 -0.238027,-8e-4 -0.773808,-0.1795 -1.190625,-0.39688 -0.416816,-0.21738 -1.025739,-0.39598 -1.353161,-0.39687 -0.327422,-8e-4 -0.595312,-0.11267 -0.595312,-0.24839 0,-0.13571 -0.256696,-0.32822 -0.570437,-0.4278 -0.31374,-0.0996 -1.250002,-0.67315 -2.08058,-1.2746 -0.83058,-0.60145 -1.779098,-1.27215 -2.107816,-1.49043 -0.328721,-0.21828 -0.731911,-0.52365 -0.895982,-0.67859 -0.164071,-0.15495 -0.493862,-0.39308 -0.732871,-0.52917 -2.168056,-1.23452 -11.116102,-10.2363 -11.975142,-12.04705 -0.13138,-0.27693 -0.33974,-0.50351 -0.46302,-0.50351 -0.12328,0 -0.22415,-0.17268 -0.22415,-0.38373 0,-0.21105 -0.15305,-0.47894 -0.34012,-0.59531 -0.18706,-0.11637 -0.63189,-0.83666 -0.9885,-1.60065 -0.35662,-0.76398 -0.73934,-1.38906 -0.85051,-1.38906 -0.11117,0 -0.20212,-0.21537 -0.20212,-0.4786 0,-0.26323 -0.17481,-0.70971 -0.38846,-0.99218 -0.21365,-0.28248 -0.39225,-0.65467 -0.39688,-0.8271 -0.005,-0.17243 -0.14957,-0.64868 -0.32209,-1.05833 -1.44865,-3.43979 -1.44898,-11.022165 -6.4e-4,-14.454248 0.17288,-0.409655 0.31811,-0.945437 0.32274,-1.190625 0.005,-0.245188 0.18322,-0.676912 0.39687,-0.959387 0.21365,-0.282475 0.38846,-0.728959 0.38846,-0.992188 0,-0.263228 0.11104,-0.478596 0.24675,-0.478596 0.13572,0 0.32888,-0.258746 0.42925,-0.57499 0.23967,-0.755117 0.45823,-1.02238 2.53201,-3.096162 1.949554,-1.949552 2.284697,-2.233906 2.917683,-2.475522 0.812431,-0.310113 0.737565,0.123904 -0.223734,1.297043 -1.267929,1.547343 -1.381109,3.174655 -0.291112,4.185545 1.419414,1.316394 2.557399,0.835469 5.746036,-2.42834 3.020201,-3.091403 5.471554,-5.053363 6.867422,-5.496394 0.30861,-0.09795 0.56111,-0.289129 0.56111,-0.424843 0,-0.135714 0.189989,-0.246754 0.422198,-0.246754 0.232209,0 0.738224,-0.160513 1.124479,-0.356696 2.037382,-1.03481 3.798983,-1.604687 6.258531,-2.024631 1.84954,-0.315791 4.101041,-0.315748 4.101041,7.7e-5 0,0.145521 -0.189989,0.264584 -0.422198,0.264584 -0.369681,0 -0.940168,0.24828 -2.488218,1.082895 -0.218282,0.117684 -0.914456,0.474177 -1.547056,0.792207 -2.718038,1.366453 -9.300861,7.096826 -9.300861,8.096434 0,0.190967 -0.108849,0.347213 -0.24189,0.347213 -0.498898,0 -3.714473,5.724488 -3.722992,6.627813 -0.0021,0.225557 -0.121882,0.52812 -0.266121,0.67236 -0.14424,0.14424 -0.374709,0.79313 -0.512154,1.441985 -0.137445,0.64885 -0.373778,1.65597 -0.525184,2.23806 -0.349972,1.34547 -0.348902,7.03284 0.0016,8.59895 0.146565,0.65485 0.375453,1.77594 0.508642,2.49131 0.133188,0.71538 0.365274,1.4238 0.515746,1.57428 0.150472,0.15047 0.273586,0.44563 0.273586,0.65592 0,0.5006 1.859213,4.38054 2.153846,4.49481 0.125076,0.0485 0.227407,0.20216 0.227407,0.34145 0,1.05653 7.738306,9.49222 8.707488,9.49222 0.158591,0 0.288345,0.1168 0.288345,0.25955 0,0.14274 0.297657,0.33424 0.661459,0.42555 0.363802,0.0913 0.661458,0.24972 0.661458,0.35201 0,0.1023 0.922734,0.65493 2.050521,1.22809 1.127786,0.57315 2.110052,1.11121 2.182812,1.1957 0.07276,0.0845 0.727604,0.44166 1.455212,0.79375 0.7276,0.35208 1.457155,0.75921 1.621225,0.90473 0.16407,0.14552 0.57302,0.44317 0.90877,0.66146 0.78374,0.50952 2.11985,1.84563 2.62938,2.62937 0.21828,0.33575 0.51593,0.74652 0.66145,0.91281 0.14552,0.16629 0.4849,0.77678 0.75417,1.35664 0.97967,2.10968 1.63138,3.34922 1.82602,3.47308 0.38124,0.24263 0.77196,-1.36888 0.6155,-2.53865 -0.25407,-1.89959 -1.61632,-5.56867 -2.06752,-5.56867 -0.11117,0 -0.20212,-0.18233 -0.20212,-0.40518 0,-0.22285 -0.1786,-0.47371 -0.39688,-0.55747 -0.21828,-0.0838 -0.39687,-0.29286 -0.39687,-0.46467 0,-0.39313 -2.42926,-2.80601 -2.82506,-2.80601 -0.16133,0 -0.36186,-0.1786 -0.44563,-0.39688 -0.0838,-0.21828 -0.33462,-0.39687 -0.55747,-0.39687 -0.22285,0 -0.40518,-0.11907 -0.40518,-0.26459 0,-0.29354 -1.133805,-0.36549 -1.409835,-0.0895 -0.0963,0.0963 0.12196,0.56463 0.48507,1.04068 0.3631,0.47606 0.660185,0.94628 0.660185,1.04495 0,0.30355 -1.904942,-0.15914 -2.305878,-0.56008 -0.207764,-0.20776 -0.537919,-0.37775 -0.733682,-0.37775 -0.19576,0 -0.395613,-0.0893 -0.444121,-0.19844 -0.09728,-0.21888 -1.710415,-1.38906 -1.914864,-1.38906 -0.167569,0 -3.597288,-3.42972 -3.597288,-3.59729 0,-0.1258 -1.062368,-1.69864 -1.323163,-1.95895 -0.254743,-0.25428 -1.322671,-2.57414 -1.322671,-2.87325 0,-0.16597 -0.102877,-0.30175 -0.228621,-0.30175 -0.12574,0 -0.30449,-0.55354 -0.397219,-1.23008 -0.09273,-0.67654 -0.294256,-1.38148 -0.447833,-1.56653 -0.36552,-0.44043 -0.168254,-6.63075 0.273431,-8.58048 0.181313,-0.80036 0.495072,-1.77123 0.697243,-2.15749 0.202171,-0.38625 0.367583,-0.88262 0.367583,-1.10303 0,-0.36643 0.744474,-1.98119 1.058333,-2.29553 0.29215,-0.29259 1.322917,-1.84106 1.322917,-1.98735 0,-0.36293 2.027819,-1.97289 3.150341,-2.50118 0.668406,-0.314575 1.422026,-0.683545 1.674714,-0.819935 0.252688,-0.13639 1.605926,-0.24799 3.007203,-0.24799 4.248895,0 7.372345,1.326695 10.250705,4.353985 1.52739,1.60643 2.02537,2.76318 2.02537,4.70474 0,1.91152 0.47814,2.84753 1.4546,2.84753 0.34696,0 0.70442,0.11907 0.79436,0.26459 0.0899,0.14552 0.39462,0.26458 0.67707,0.26458 0.39193,0 0.51355,-0.18427 0.51355,-0.77813 0,-0.42798 -0.11906,-0.85172 -0.26458,-0.94166 -0.14552,-0.0899 -0.26458,-0.41189 -0.26458,-0.71546 0,-0.62291 -1.80347,-4.52851 -2.15385,-4.6644 -0.12507,-0.0485 -0.2274,-0.26061 -0.2274,-0.47133 0,-0.21072 -0.1786,-0.45166 -0.39688,-0.53542 -0.21828,-0.0838 -0.39687,-0.3043 -0.39687,-0.49008 0,-0.30474 -0.78436,-1.08556 -2.68532,-2.67321 -0.36488,-0.30473 -1.2494,-0.824935 -1.96561,-1.156005 -0.71621,-0.33107 -1.52951,-0.719656 -1.80732,-0.863534 -0.55922,-0.28961 -2.65266,-0.670692 -4.984975,-0.907445 -1.664065,-0.168917 -1.966616,-0.480158 -0.73064,-0.751622 0.43489,-0.09552 0.85864,-0.283573 0.94165,-0.417898 0.083,-0.134325 0.627995,-0.244227 1.211055,-0.244227 1.73979,0 2.08366,-0.32729 2.08366,-1.983206 0,-1.415997 0.73204,-4.366794 1.08333,-4.366794 0.0994,0 0.25641,0.4036 0.34895,0.896888 0.25178,1.342083 1.10123,1.456267 1.48675,0.199849 0.37465,-1.221013 1.08387,-2.703509 1.51274,-3.16212 0.1819,-0.194515 0.33073,-0.475247 0.33073,-0.623847 0,-0.307436 3.05173,-3.36248 3.84406,-3.848231 0.93754,-0.574776 3.26038,-1.664622 3.54788,-1.664622 0.4423,0 0.3296,0.480537 -0.24819,1.058333 -0.29105,0.291042 -0.52917,0.582564 -0.52917,0.647827 0,0.06526 -0.26789,0.4111 -0.59531,0.768527 -0.53992,0.589394 -1.0645,1.523278 -2.08862,3.718245 -0.47436,1.016695 -0.49605,6.079382 -0.0281,6.547016 0.1819,0.181758 0.33073,0.549879 0.33073,0.818048 0,0.555807 1.78641,3.991013 2.14512,4.124993 0.12987,0.0485 0.23613,0.20215 0.23613,0.34144 0,0.29677 1.09925,1.911005 1.38906,2.039815 0.10914,0.0485 0.19844,0.24836 0.19844,0.44412 0,0.19576 0.14883,0.51507 0.33073,0.70959 0.30685,0.32813 0.6525,1.00857 1.62237,3.19373 0.50792,1.14435 0.98843,2.97958 1.14839,4.38606 0.12489,1.09806 -0.4378,3.64793 -1.00179,4.53976 -0.13804,0.21828 -0.33309,0.57547 -0.43345,0.79375 -0.10035,0.21828 -0.51631,0.69128 -0.92435,1.0511 -0.40805,0.35983 -0.7419,0.84349 -0.7419,1.07479 0,0.2313 -0.22663,0.8894 -0.50361,1.46243 -1.30355,2.69685 -3.52194,3.25812 -6.0716,1.53617 -0.0511,-0.0345 0.21004,-0.38948 0.58032,-0.78881 1.16041,-1.25146 2.00697,-5.04759 1.23239,-5.52631 -0.14552,-0.0899 -0.26458,-0.43628 -0.26458,-0.76966 0,-0.60258 -1.30026,-2.6298 -2.09674,-3.269 -1.64503,-1.32019 -4.88037,-1.81392 -6.46632,-0.98679 -0.41682,0.21739 -0.90733,0.39525 -1.09002,0.39525 -0.51249,0 -2.453635,1.80635 -2.942738,2.7384 -0.492819,0.93913 -0.941478,2.81825 -0.957062,4.00847 -0.01506,1.15058 0.511511,4.08374 0.798822,4.44964 0.13512,0.17207 0.323893,0.64028 0.419493,1.04047 0.0956,0.40018 0.29061,0.7276 0.43336,0.7276 0.14274,0 0.25954,0.12388 0.25954,0.2753 0,0.34815 0.919185,1.6493 2.116665,2.99621 1.1038,1.24155 4.91594,4.13681 5.44686,4.13681 0.20569,0 0.37397,0.0918 0.37397,0.20397 0,0.11218 0.56555,0.49913 1.25677,0.85989 2.24375,1.17106 3.88071,2.26563 4.97036,3.3235 3.48253,3.38094 5.04072,7.54021 4.3284,11.55379 -0.18724,1.05502 -0.49571,2.07556 -0.68549,2.26786 -0.18977,0.19229 -0.34504,0.57924 -0.34504,0.85989 0,0.28065 -0.11104,0.51027 -0.24675,0.51027 -0.13572,0 -0.31396,0.21172 -0.39608,0.47048 -0.29854,0.94062 -2.96889,3.43637 -4.29241,4.01175 -0.31328,0.13619 -0.64773,0.37403 -0.74322,0.52853 -0.0955,0.1545 -0.33742,0.28091 -0.53764,0.28091 -0.20022,0 -0.69921,0.14035 -1.10886,0.31189 -2.52149,1.05586 -10.832635,1.62064 -12.783373,0.86869 z m 17.462499,-1.09647 c 0,-0.0408 0.7138,-0.76105 1.58623,-1.60052 0.87243,-0.83946 1.5868,-1.67513 1.5875,-1.85703 7.9e-4,-0.1819 0.11231,-0.33073 0.24802,-0.33073 0.13571,0 0.33002,-0.26234 0.43178,-0.58297 0.10177,-0.32064 0.34791,-0.74586 0.547,-0.94494 0.19908,-0.19909 0.36197,-0.59159 0.36197,-0.87224 0,-0.28065 0.10942,-0.51027 0.24315,-0.51027 0.13374,0 0.36442,-0.50601 0.51264,-1.12448 0.14821,-0.61846 0.40665,-1.66026 0.5743,-2.3151 0.34782,-1.35856 0.19487,-4.4017 -0.24325,-4.83983 -0.1612,-0.1612 -0.29309,-0.50783 -0.29309,-0.7703 0,-0.92068 -1.51415,-3.33358 -3.09571,-4.93322 -1.22999,-1.24405 -1.44117,-1.89207 -0.61661,-1.89207 0.56728,0 2.73182,-1.03706 2.87447,-1.3772 0.0485,-0.11566 0.23265,-0.2103 0.4092,-0.2103 0.96951,0 5.98489,-5.10648 5.98489,-6.09359 0,-0.16181 0.1786,-0.47279 0.39688,-0.69107 0.21828,-0.21828 0.39687,-0.66221 0.39687,-0.98652 0,-0.3243 0.1306,-0.72023 0.29021,-0.87985 1.04728,-1.04728 1.07057,-9.6501 0.0314,-11.60896 -0.14874,-0.28038 -0.54818,-1.13487 -0.88766,-1.89885 -0.33947,-0.76399 -0.70818,-1.38906 -0.81934,-1.38906 -0.11117,0 -0.20213,-0.14928 -0.20213,-0.33173 0,-0.37816 -2.5734,-3.15213 -3.33386,-3.59368 -0.44164,-0.25644 -0.39832,-0.29281 0.3573,-0.29988 0.47295,-0.004 0.8599,0.10156 0.8599,0.23551 0,0.13396 0.35582,0.32172 0.79071,0.41724 0.4349,0.0955 0.85864,0.28357 0.94166,0.41789 0.16449,0.26615 1.26302,0.33565 1.50354,0.0951 0.082,-0.082 -0.1943,-0.82615 -0.61401,-1.65365 -0.41971,-0.8275 -0.76462,-1.65337 -0.76647,-1.83527 -0.002,-0.1819 -0.10719,-0.33073 -0.23412,-0.33073 -0.12692,0 -0.31073,-0.500115 -0.40847,-1.111355 -0.0978,-0.61125 -0.2755,-1.236324 -0.395,-1.389064 -0.33691,-0.430597 -0.54137,-4.317465 -0.32776,-6.230835 l 0.19199,-1.719792 0.1493,2.064605 c 0.0821,1.135532 0.28583,2.201141 0.45271,2.36802 0.16688,0.166879 0.30342,0.568756 0.30342,0.893059 0,0.324304 0.17859,0.768237 0.39687,0.986518 0.21828,0.218281 0.39688,0.575469 0.39688,0.79375 0,0.218281 0.14883,0.559236 0.33073,0.757677 0.39495,0.430868 0.92745,1.244832 1.17342,1.793662 0.0978,0.21828 0.54355,0.889235 0.9905,1.490995 0.44695,0.60177 0.99123,1.3605 1.20951,1.68607 0.21829,0.32557 0.54571,0.74745 0.72761,0.9375 0.1819,0.19006 0.33073,0.40763 0.33073,0.48349 0,0.0759 0.35719,0.66717 0.79375,1.31404 0.43656,0.64686 0.79375,1.31944 0.79375,1.49463 0,0.17518 0.17052,0.6937 0.37893,1.15225 0.84505,1.85932 0.96198,11.18037 0.15857,12.64127 -0.13019,0.23675 -0.32129,0.89159 -0.42465,1.45521 -0.10336,0.56362 -0.34963,1.25961 -0.54727,1.54665 -0.19763,0.28704 -0.35933,0.79306 -0.35933,1.12448 0,0.33142 -0.1168,0.60259 -0.25954,0.60259 -0.14275,0 -0.33968,0.32742 -0.43762,0.7276 -0.0979,0.40017 -0.25934,0.78713 -0.35867,0.85989 -0.0993,0.0728 -0.49275,0.67005 -0.87426,1.32732 -0.38151,0.65726 -0.90699,1.43117 -1.16772,1.71979 -0.75836,0.83946 -2.78868,3.80798 -3.16383,4.6258 -0.10013,0.21828 -0.25671,0.45641 -0.34794,0.52917 -0.34763,0.27722 -1.32792,2.42023 -1.32792,2.90295 0,0.27797 -0.11906,0.57899 -0.26459,0.66892 -0.33231,0.20539 -0.34919,1.90085 -0.021,2.10372 0.134,0.0828 0.61417,-0.4757 1.06705,-1.24115 1.3924,-2.35343 1.53366,-2.56634 2.39838,-3.61503 0.28835,-0.34969 0.52617,-0.70688 0.52849,-0.79375 0.002,-0.0869 0.32975,-0.53274 0.7276,-0.99082 0.39786,-0.45808 0.90198,-1.09241 1.12026,-1.40963 0.21828,-0.31722 0.93265,-1.31797 1.5875,-2.22389 0.65484,-0.90592 1.42875,-2.11524 1.71979,-2.68737 0.29104,-0.57214 0.67799,-1.1994 0.85989,-1.39392 0.18191,-0.19451 0.33073,-0.58327 0.33073,-0.86392 0,-0.28065 0.10961,-0.51027 0.24356,-0.51027 0.13396,0 0.32631,-0.38695 0.42743,-0.85989 0.10113,-0.47295 0.29462,-0.99771 0.42997,-1.16614 0.13536,-0.16843 0.3537,-0.88281 0.4852,-1.5875 0.1315,-0.70469 0.359,-1.81704 0.50557,-2.47188 0.35026,-1.56497 0.34168,-6.6919 -0.0137,-8.20209 -0.34084,-1.44827 -0.55948,-4.25656 -0.28839,-3.70416 0.22934,0.46733 1.17992,1.92612 1.37927,2.11666 0.12854,0.12286 1.43722,2.80354 2.26043,4.63021 0.19674,0.43656 0.43999,1.20656 0.54055,1.71111 0.10056,0.50454 0.27827,1.09986 0.39491,1.32292 0.11663,0.22305 0.34642,1.62583 0.51063,3.11728 0.33303,3.02469 -0.003,7.478 -0.67775,8.96992 -0.20725,0.45855 -0.37682,1.01445 -0.37682,1.23533 0,0.87207 -1.27918,2.71439 -3.32074,4.78264 -1.35102,1.36869 -4.1002,3.86392 -4.25717,3.86392 -0.13202,0 -3.35414,2.38143 -4.22422,3.12206 -0.30654,0.26094 -0.76219,0.9061 -1.01254,1.43368 -0.51063,1.07608 -0.27759,1.89868 0.61847,2.18307 0.52888,0.16786 3.20038,-0.86067 3.20038,-1.23214 0,-0.11825 0.14928,-0.21501 0.33173,-0.21501 0.43997,0 3.00525,-2.46145 4.3868,-4.20924 0.96184,-1.21682 1.10231,-1.31251 1.10231,-0.75092 0,0.35398 -0.2988,1.16834 -0.664,1.80969 -0.36519,0.64135 -0.73627,1.37446 -0.82461,1.62912 -0.0883,0.25466 -0.25776,0.46302 -0.3765,0.46302 -0.11875,0 -0.2945,0.24764 -0.39056,0.55032 -0.18394,0.57954 -5.00078,5.5351 -5.38016,5.5351 -0.19397,0 -0.59411,0.29108 -1.81186,1.31801 -0.17576,0.14822 -0.43514,0.26949 -0.57641,0.26949 -0.14127,0 -0.416,0.14882 -0.61052,0.33072 -0.41569,0.38874 -1.94441,1.14885 -2.79299,1.38873 -0.32742,0.0926 -0.59531,0.27933 -0.59531,0.41504 0,0.13571 -0.2749,0.24676 -0.61089,0.24676 -0.33599,0 -0.842,0.1748 -1.12448,0.38846 -0.28247,0.21365 -0.73372,0.39224 -1.00277,0.39687 -0.26905,0.005 -0.86436,0.17772 -1.32291,0.38466 -0.73214,0.3304 -2.81811,0.7017 -2.81811,0.50162 z M 74.442411,85.924579 c 0,-0.140954 0.178594,-0.25628 0.396875,-0.25628 0.218281,0 0.396875,0.04679 0.396875,0.103984 0,0.05719 -0.178594,0.172517 -0.396875,0.25628 -0.218281,0.08376 -0.396875,0.03697 -0.396875,-0.103984 z m 41.274999,-4.7625 c 0,-0.140954 0.17859,-0.25628 0.39687,-0.25628 0.21828,0 0.39688,0.04679 0.39688,0.103985 0,0.05719 -0.1786,0.172517 -0.39688,0.256279 -0.21828,0.08376 -0.39687,0.03697 -0.39687,-0.103984 z"
       id="path264" />
  </g>
</svg>
