<svg width="23" height="23" viewBox="0 0 23 23" fill="none" xmlns="http://www.w3.org/2000/svg">
<path d="M9.89898 9.15688C9.89898 9.15688 13.1542 8.88627 13.2388 11.9386C13.3233 14.991 10.3216 15.4136 8.46148 15.3291C6.60136 15.2445 2.66979 12.6658 2.96574 8.56499L3.1952 7.10449L3.84908 6.3525C3.84908 6.3525 5.35289 3.31201 8.78582 2.39668C8.78582 2.39668 9.07997 1.90631 9.4397 1.90631C9.79926 1.90631 10.0936 2.29857 10.6167 2.36398C11.1397 2.42938 11.3359 1.87361 11.8263 1.90631C12.3167 1.93902 12.3494 2.29857 12.8725 2.39668C13.3955 2.49479 15.9456 2.78894 18.0052 5.60069C18.0052 5.60069 18.1033 6.31998 18.3975 6.45079C18.6916 6.5816 19.3782 6.87575 19.4763 7.10467C19.5744 7.33359 20.261 9.78543 20.1956 10.8318C20.1302 11.8779 19.8361 16.7492 16.5993 18.253L16.5339 19.1357C16.5339 19.1357 14.1146 21.2933 10.4203 21.0319C6.72588 20.7704 5.73113 20.3812 4.86252 19.2011C4.74285 19.0384 4.56837 18.4491 4.56837 18.4491L4.24152 17.7625C4.24152 17.7625 3.94737 17.2721 4.56837 17.3702C5.18955 17.4683 7.44535 18.351 8.68771 18.3837C9.93007 18.4164 10.584 17.7625 10.8127 17.6971C11.0416 17.6317 12.3819 17.1086 12.7743 17.0432C13.1666 16.9778 15.5859 15.4975 15.9456 11.9386C16.3054 8.37974 13.1012 6.28727 11.2704 6.25457C11.2704 6.25457 10.1261 6.22187 9.86448 6.38538C9.60286 6.5489 7.90283 7.33342 7.15102 7.43152C7.15102 7.43152 6.52984 8.02 6.62795 8.73929C6.72606 9.45858 6.72606 11.9341 9.34141 11.9386C9.34141 11.9386 9.96601 11.6015 9.89898 9.15688V9.15688Z" fill="black"/>
</svg>
