<?xml version="1.0" encoding="UTF-8" standalone="no"?>
<svg
   xmlns:dc="http://purl.org/dc/elements/1.1/"
   xmlns:cc="http://creativecommons.org/ns#"
   xmlns:rdf="http://www.w3.org/1999/02/22-rdf-syntax-ns#"
   xmlns:svg="http://www.w3.org/2000/svg"
   xmlns="http://www.w3.org/2000/svg"
   width="85.195831mm"
   height="83.07917mm"
   viewBox="0 0 85.195831 83.07917"
   version="1.1"
   id="svg8">
  <defs
     id="defs2" />
  <metadata
     id="metadata5">
    <rdf:RDF>
      <cc:Work
         rdf:about="">
        <dc:format>image/svg+xml</dc:format>
        <dc:type
           rdf:resource="http://purl.org/dc/dcmitype/StillImage" />
        <dc:title></dc:title>
      </cc:Work>
    </rdf:RDF>
  </metadata>
  <g
     id="layer1"
     transform="translate(-60.211609,-76.388985)">
    <path
       style="fill:#000000;stroke-width:0.264583"
       d="m 96.005956,155.41659 c -1.091407,-0.12806 -2.543845,-0.35837 -3.227639,-0.51178 -0.683797,-0.15341 -1.874422,-0.38046 -2.645834,-0.50454 -2.026499,-0.32596 -5.294807,-1.22627 -7.885502,-2.17219 -1.378052,-0.50316 -3.437836,-1.77121 -4.552786,-2.8028 -1.35818,-1.25664 -1.941705,-2.50714 -2.183512,-4.67931 -0.355086,-3.18976 -0.336651,-3.38545 0.351618,-3.73253 0.734354,-0.37032 1.43303,-0.13332 3.777182,1.28125 2.641735,1.59416 9.07503,2.84816 14.611618,2.84816 h 2.991628 l 1.432134,-1.00937 c 1.730677,-1.21978 3.392807,-1.86759 5.298997,-2.06527 0.78364,-0.0813 2.02011,-0.33192 2.74772,-0.55702 1.76282,-0.54535 5.23367,-2.86263 6.90886,-4.61262 1.64102,-1.71431 4.07135,-4.93725 4.07135,-5.39917 0,-0.18445 0.0893,-0.37506 0.19843,-0.42357 0.10914,-0.0485 0.48399,-0.6835 0.83299,-1.41111 0.349,-0.7276 0.75361,-1.55793 0.89913,-1.84517 0.48032,-0.94809 0.8223,-4.70566 0.81936,-9.00274 -0.004,-5.87291 -0.51014,-8.44386 -2.26569,-11.50938 -0.12501,-0.21828 -0.35627,-0.72429 -0.51393,-1.12448 -0.15765,-0.40018 -0.39406,-0.7276 -0.52534,-0.7276 -0.13129,0 -0.2387,-0.18233 -0.2387,-0.40518 0,-0.22285 -0.1786,-0.47371 -0.39688,-0.55747 -0.21828,-0.0838 -0.39687,-0.31408 -0.39687,-0.51181 0,-0.19773 -0.98227,-1.3551 -2.18282,-2.57192 -2.08739,-2.115684 -3.90979,-3.361951 -4.91616,-3.361951 -0.25746,0 -0.58122,-0.106517 -0.71946,-0.236705 -0.24769,-0.23325 -1.75537,-0.634468 -4.08781,-1.087827 -2.05626,-0.399676 -6.289807,-0.311474 -7.368348,0.153512 -2.129083,0.917903 -2.679054,1.172923 -5.88532,2.729011 -1.832486,0.88936 -3.475772,1.61701 -3.651748,1.61701 -0.175976,0 -0.779133,0.26427 -1.340351,0.58726 -1.013466,0.58328 -2.127151,2.46582 -2.127151,3.59568 0,0.26054 -0.118368,0.59209 -0.263039,0.73676 -0.384516,0.38452 -0.423699,1.55979 -0.07565,2.26916 0.166325,0.33899 0.376983,1.17912 0.468129,1.86695 0.09115,0.68783 0.277904,1.31993 0.415017,1.40468 0.137113,0.0847 0.249296,0.45233 0.249296,0.81687 0,1.81991 2.114566,4.69068 4.283673,5.8156 1.073076,0.5565 4.303483,1.41716 5.34239,1.42333 1.41972,0.008 2.408333,-0.87425 2.877061,-2.56883 0.364712,-1.31853 0.374444,-1.70878 0.07109,-2.85059 -0.19331,-0.7276 -0.541012,-1.6801 -0.772671,-2.11667 -0.231658,-0.43656 -0.421931,-1.00802 -0.422828,-1.26991 -0.0027,-0.79685 0.780617,-2.0461 1.440276,-2.2969 0.833397,-0.31686 3.510164,0.0809 4.948614,0.73535 2.31052,1.05121 5.52495,4.02322 7.02886,6.49879 0.92751,1.52674 0.93952,1.58334 0.7786,3.67005 -0.0899,1.16567 -0.27137,2.25381 -0.40328,2.41809 -0.13191,0.16429 -0.32826,0.71151 -0.43633,1.21606 -0.10807,0.50454 -0.29294,1.09986 -0.41083,1.32292 -0.11789,0.22305 -0.48111,0.97124 -0.80715,1.66263 -0.77714,1.64792 -1.93483,2.66644 -4.47717,3.93891 -4.021087,2.01262 -4.902017,2.21196 -9.647594,2.183 -7.663282,-0.0468 -9.902914,-0.79331 -14.56788,-4.85602 -0.590771,-0.51451 -1.368117,-1.17359 -1.727435,-1.46463 -0.359318,-0.29104 -1.222744,-0.98963 -1.918722,-1.55242 -1.210179,-0.97858 -2.555755,-2.74526 -2.555755,-3.35559 0,-0.15858 -0.357188,-0.80747 -0.79375,-1.44199 -0.613426,-0.89159 -0.793453,-1.44339 -0.792441,-2.42893 7.14e-4,-0.70138 -0.168624,-1.81102 -0.37632,-2.46586 -0.493959,-1.55741 -0.913622,-3.63126 -1.231066,-6.08356 -0.141147,-1.09038 -0.372639,-2.40006 -0.514426,-2.91041 -0.635788,-2.28844 -0.02764,-4.5413 1.548453,-5.736217 1.270131,-0.962949 1.727676,-1.532441 2.519397,-3.135813 1.624043,-3.288968 6.497955,-8.611678 9.396368,-10.2616 4.194232,-2.387568 8.756924,-4.186464 12.529097,-4.939745 0.805537,-0.160861 1.289923,-0.05238 2.642347,0.59178 l 1.65601,0.788748 2.117447,-0.455018 c 3.41544,-0.73394 6.38425,-0.572513 10.10819,0.549626 3.38908,1.021236 7.23322,2.721301 9.25971,4.095098 2.12554,1.440942 6.41718,5.282947 7.24464,6.485626 0.54828,0.796887 0.778,1.448746 0.778,2.207593 0,0.592245 0.11907,1.076808 0.26459,1.076808 0.14552,0 0.26458,0.182607 0.26458,0.405793 0,0.538768 1.34978,1.834077 2.91442,2.796811 0.83352,0.51287 1.41306,1.11386 1.70124,1.76418 0.24038,0.54249 0.53521,1.16884 0.65518,1.3919 0.11997,0.22305 0.30195,0.78724 0.40441,1.25373 0.10246,0.4665 0.2962,0.9161 0.43052,0.99912 0.13433,0.083 0.24423,1.03093 0.24423,2.10647 0,1.07553 0.1822,4.03537 0.4049,6.57742 0.3634,4.14823 0.36342,4.8207 2.1e-4,6.56168 -0.22257,1.06687 -0.40477,2.27502 -0.40489,2.68477 -1.2e-4,0.40975 -0.12256,0.97359 -0.27209,1.25299 -0.14953,0.27939 -0.38181,1.0157 -0.51618,1.63625 -0.49544,2.28797 -1.77583,6.19126 -2.80027,8.53659 -0.19069,0.43656 -0.41485,0.97235 -0.49813,1.19063 -0.7274,1.90639 -4.28412,6.10669 -5.5047,6.50075 -0.25466,0.0822 -0.46302,0.24762 -0.46302,0.36756 0,0.11994 -0.28975,0.29079 -0.64388,0.37968 -0.87827,0.22043 -1.762,1.54101 -1.93044,2.88471 -0.18065,1.44112 -1.66514,2.89559 -4.19226,4.10748 -1.00781,0.48329 -2.16944,1.04884 -2.58142,1.25677 -0.41198,0.20793 -0.94776,0.37878 -1.19063,0.37968 -0.24286,7.9e-4 -0.74626,0.16064 -1.11868,0.35498 -0.37239,0.19434 -1.20134,0.43718 -1.84208,0.53964 -0.64074,0.10246 -1.88386,0.42796 -2.76248,0.72332 -5.90543,1.98525 -8.8761,2.36458 -13.900619,1.775 z"
       id="path38" />
  </g>
</svg>
