<?xml version="1.0" encoding="UTF-8" standalone="no"?>
<svg
   xmlns:dc="http://purl.org/dc/elements/1.1/"
   xmlns:cc="http://creativecommons.org/ns#"
   xmlns:rdf="http://www.w3.org/1999/02/22-rdf-syntax-ns#"
   xmlns:svg="http://www.w3.org/2000/svg"
   xmlns="http://www.w3.org/2000/svg"
   width="85.195831mm"
   height="83.07917mm"
   viewBox="0 0 85.195831 83.07917"
   version="1.1"
   id="svg8">
  <defs
     id="defs2" />
  <metadata
     id="metadata5">
    <rdf:RDF>
      <cc:Work
         rdf:about="">
        <dc:format>image/svg+xml</dc:format>
        <dc:type
           rdf:resource="http://purl.org/dc/dcmitype/StillImage" />
        <dc:title></dc:title>
      </cc:Work>
    </rdf:RDF>
  </metadata>
  <g
     id="layer1"
     transform="translate(-60.211609,-76.388985)">
    <path
       style="fill:#000000;stroke-width:0.264583"
       d="m 91.273634,155.72961 c -2.67813,-0.78199 -3.97711,-3.49647 -2.57847,-5.38824 0.77488,-1.04808 2.02326,-1.31461 2.63263,-0.56206 0.37988,0.46912 0.40487,0.69502 0.15122,1.36701 -0.24891,0.65943 -0.23275,0.84999 0.0894,1.05365 0.79407,0.50207 1.98829,0.28046 2.80815,-0.5211 1.18214,-1.15577 3.28288,-5.21084 3.50694,-6.7695 0.10513,-0.73129 0.29749,-1.5052 0.42748,-1.71979 0.26798,-0.4424 4.405296,-5.28496 4.515286,-5.28496 0.0393,0 0.72008,0.92273 1.51277,2.05052 0.79269,1.12778 1.75282,2.35943 2.13363,2.73698 0.43171,0.42802 0.85409,1.31771 1.12193,2.36319 1.04689,4.08636 3.30239,7.40139 5.03582,7.40139 0.94937,0 1.5982,-0.75174 1.30601,-1.51316 -0.24307,-0.63343 0.56386,-1.66184 1.30394,-1.66184 0.9095,0 1.98898,1.24654 1.98898,2.29679 0,0.46584 -0.10557,0.91222 -0.23459,0.99197 -0.12902,0.0797 -0.30995,0.54667 -0.40205,1.03762 -0.20601,1.09812 -0.76552,1.61959 -2.14148,1.99585 -2.40124,0.65662 -3.99843,0.16515 -5.68355,-1.74892 -1.16475,-1.32297 -1.68371,-2.32662 -3.9747,-7.68672 -0.76299,-1.78514 -1.4927,-3.31087 -1.62157,-3.39052 -0.69028,-0.42662 -1.24339,0.3078 -2.3586,3.13178 -1.345776,3.40782 -3.237186,7.21727 -3.983726,8.02355 -0.54915,0.59308 -2.43101,1.6062 -3.61024,1.9436 -0.44623,0.12767 -1.19917,0.0707 -1.94518,-0.14709 z M 123.0982,147.6966 c -1.52209,-0.17279 -2.77521,-0.80302 -2.38084,-1.19738 0.0821,-0.0821 0.72985,-0.24463 1.43946,-0.3612 0.70962,-0.11658 1.82599,-0.45979 2.48083,-0.7627 0.8513,-0.39379 1.88429,-0.5796 3.62454,-0.65199 2.43222,-0.10116 2.43496,-0.10206 3.96468,-1.30912 1.85957,-1.46733 3.40909,-3.63418 3.76324,-5.26252 0.34457,-1.58423 -0.0147,-4.06833 -0.77459,-5.3563 -0.32621,-0.55289 -1.52999,-1.71844 -2.67507,-2.59011 -2.12924,-1.62085 -2.37821,-2.02078 -1.68781,-2.71119 1.17982,-1.17982 3.21156,-0.58052 5.77366,1.70304 1.37432,1.22492 2.82802,3.52171 2.82802,4.46819 0,0.2609 0.19708,1.08457 0.43795,1.83038 0.41208,1.27593 0.40981,1.45351 -0.0384,3.00694 -0.78948,2.73608 -1.70016,4.43124 -3.14547,5.85502 -2.29157,2.25744 -3.69143,2.90161 -7.17593,3.30212 -2.84295,0.32676 -3.83041,0.33242 -6.43425,0.0368 z m -48.731386,-0.22041 c -0.87372,-0.16876 -3.68818,-1.45281 -4.45073,-2.03058 -0.97595,-0.73945 -2.47984,-2.34328 -3.03107,-3.23251 -0.34135,-0.55066 -0.83827,-1.97093 -1.10425,-3.15616 -0.46379,-2.06659 -0.46456,-2.22934 -0.0188,-3.96875 1.1303,-4.41031 2.28942,-6.09037 5.12364,-7.4264 1.57845,-0.74406 3.09123,-0.70258 3.67875,0.1009 0.56591,0.77392 0.37991,1.12176 -1.10916,2.07431 -2.84654,1.8209 -4.38008,4.21746 -4.38008,6.84499 0,0.80079 0.1099,1.5239 0.24423,1.60692 0.13432,0.083 0.32392,0.5138 0.42133,0.9573 0.40195,1.83007 4.25367,4.41402 6.9332,4.65118 1.64811,0.14588 2.88122,0.51143 3.51374,1.04165 0.21828,0.18297 0.71553,0.4122 1.10501,0.50939 0.38947,0.0972 0.90185,0.39075 1.13861,0.65238 0.40605,0.44867 0.35833,0.50053 -0.84042,0.91326 -1.37491,0.47339 -5.72494,0.75166 -7.22403,0.46212 z m 40.745836,-3.07291 c -0.94588,-0.16995 -2.05496,-0.45151 -2.46462,-0.6257 -0.40965,-0.17419 -0.81855,-0.31671 -0.90865,-0.31671 -0.0901,0 -0.70743,-0.26225 -1.37184,-0.58278 -1.62204,-0.78253 -3.33145,-2.58728 -5.19275,-5.48242 -0.84808,-1.31913 -1.77444,-2.4722 -2.0586,-2.56239 -0.56005,-0.17775 -0.55975,-0.17807 -3.819306,3.93308 -1.79553,2.26463 -3.35039,3.65004 -4.50927,4.01785 -0.31737,0.10073 -0.57705,0.29419 -0.57705,0.4299 0,0.13572 -0.26789,0.24749 -0.59531,0.24839 -0.32742,7.9e-4 -0.9525,0.19278 -1.38906,0.4264 -0.99721,0.53365 -8.39432,0.68377 -9.41705,0.19111 -0.35042,-0.1688 -1.17966,-0.55524 -1.84277,-0.85875 -1.12843,-0.51651 -1.72781,-0.9823 -2.59055,-2.01319 -0.21992,-0.26278 -0.41202,-1.43169 -0.50117,-3.04951 -0.13462,-2.4432 -0.10199,-2.6855 0.47507,-3.52767 0.34079,-0.49736 1.18425,-1.27392 1.87435,-1.72569 1.45593,-0.95314 2.63125,-1.05024 4.6128,-0.38112 2.90931,0.98242 4.08203,2.32768 4.08203,4.68261 0,1.50996 -0.70601,2.26763 -2.16656,2.32511 -0.55464,0.0218 -1.15727,0.0516 -1.33917,0.0662 -0.38212,0.0306 -0.31939,-0.74948 0.13253,-1.64799 0.24674,-0.49058 0.22937,-0.76013 -0.0852,-1.32292 -0.32529,-0.58187 -0.61052,-0.72084 -1.61369,-0.78623 -1.05595,-0.0688 -1.29314,0.0154 -1.77738,0.63099 -0.37383,0.47525 -0.55882,1.09074 -0.55882,1.85928 0,1.32061 0.4482,1.73332 2.74427,2.52691 2.16987,0.74997 3.36358,0.63089 7.81654,-0.77973 0.98787,-0.31294 1.87096,-0.86764 2.84427,-1.78658 1.22536,-1.15689 1.41158,-1.46566 1.41158,-2.34042 0,-0.55424 -0.20571,-1.35594 -0.45713,-1.78156 -0.37439,-0.6338 -0.39833,-0.868 -0.13229,-1.29401 0.17866,-0.28608 0.32484,-0.81941 0.32484,-1.18519 0,-0.58149 -0.11438,-0.66505 -0.91043,-0.66505 -0.50073,0 -0.97976,0.11218 -1.0645,0.2493 -0.2602,0.42101 -2.41162,0.61271 -3.62375,0.32288 -2.63223,-0.62937 -3.43861,-0.85615 -3.86912,-1.08809 -0.24974,-0.13455 -1.04939,-0.52 -1.77699,-0.85655 -1.4006,-0.64784 -3.92193,-2.93992 -4.36498,-3.96808 -0.14518,-0.33692 -0.36588,-0.79118 -0.49044,-1.00946 -1.00473,-1.76074 -1.73134,-4.60849 -1.72146,-6.74688 0.007,-1.48965 0.57308,-4.88813 0.88162,-5.29166 0.11127,-0.14552 0.28801,-0.74084 0.39277,-1.32292 0.10475,-0.58208 0.29264,-1.18208 0.41752,-1.33333 0.43264,-0.524 0.87267,-2.64281 0.87701,-4.22292 0.005,-1.9009 -0.50927,-4.72484 -0.88355,-4.8496 -0.14733,-0.0491 -0.26787,-0.21696 -0.26787,-0.37299 0,-0.601019 -1.31851,-1.971099 -2.34034,-2.431879 -0.96264,-0.43409 -1.19402,-0.44593 -2.3096,-0.11814 -1.43388,0.4213 -2.75839,1.81356 -2.75839,2.899469 0,0.72205 1.04254,2.07238 1.64101,2.12548 0.18885,0.0168 0.54705,0.0101 0.79599,-0.0149 0.85668,-0.0858 1.53175,0.49289 1.53175,1.31308 0,0.65175 -0.16408,0.84993 -0.99219,1.19839 -0.5457,0.22963 -1.30319,0.42747 -1.68329,0.43965 -1.1016,0.0353 -2.67718,-0.89339 -3.46207,-2.04067 -0.61982,-0.906 -0.7253,-1.33092 -0.73283,-2.95215 -0.0149,-3.203129 1.28186,-5.023519 4.57721,-6.425649 1.54655,-0.65805 2.43699,-0.67958 4.4734,-0.10819 2.62049,0.73527 4.31646,2.62269 5.87818,6.541739 0.50059,1.25621 0.58377,8.07505 0.10931,8.96158 -0.16442,0.30722 -0.39884,1.22213 -0.52094,2.03312 -0.1221,0.811 -0.35451,2.36752 -0.51647,3.45892 -0.32923,2.2186 -0.19779,5.18627 0.24951,5.63358 0.1612,0.1612 0.2931,0.50374 0.2931,0.76119 0,1.28006 1.86117,3.75405 3.45045,4.58656 1.31572,0.6892 3.72646,1.01956 4.96369,0.68019 1.32875,-0.36446 1.61412,-0.86605 1.04415,-1.83528 -1.02316,-1.73988 -1.78534,-3.32582 -1.78494,-3.71408 2.4e-4,-0.23299 0.47649,-0.87154 1.05833,-1.41901 0.76286,-0.71779 1.0579,-1.20972 1.0579,-1.76389 0,-0.42267 -0.0942,-0.80818 -0.2094,-0.85669 -0.57483,-0.24211 -2.69861,-3.62999 -2.70265,-4.31132 -7.9e-4,-0.15114 -0.16827,-0.59419 -0.37194,-0.98457 -0.20366,-0.39038 -0.4562,-1.10085 -0.56118,-1.57882 -0.10498,-0.47796 -0.28667,-1.05153 -0.40376,-1.27459 -0.21308,-0.40591 -0.60949,-1.85789 -1.04979,-3.84514 -0.31211,-1.40867 -0.29148,-6.280799 0.0336,-7.937509 0.14277,-0.7276 0.36806,-1.91823 0.50064,-2.64583 0.31441,-1.72551 0.82881,-3.1116 1.87158,-5.04307 1.06559,-1.97374 1.67913,-2.80872 4.36258,-5.93714 3.50378,-4.08476 5.958206,-6.0988 7.485316,-6.14221 0.63566,-0.0181 1.28878,0.38515 3.06134,1.89003 2.53362,2.151 3.85867,3.563 3.85867,4.11187 0,0.20375 -0.1147,0.67215 -0.2549,1.0409 -0.21177,0.557 -0.15704,0.73901 0.32345,1.07556 0.3181,0.22281 0.85736,0.4051 1.19835,0.4051 0.34098,0 0.84902,0.12258 1.12896,0.2724 0.4958,0.26535 2.72776,3.42994 3.35344,4.75469 1.32164,2.79832 1.72371,4.40837 1.75092,7.01145 0.0309,2.959109 -1.16569,11.260309 -1.84979,12.832299 -0.81067,1.86283 -2.08642,4.37398 -2.38126,4.68724 -0.16649,0.17688 -0.56041,0.85394 -0.87537,1.50456 -0.53764,1.11061 -0.54703,1.23253 -0.15352,1.9935 0.23053,0.44579 0.57623,0.81053 0.76822,0.81053 0.19199,0 0.54425,0.21567 0.7828,0.47926 0.53716,0.59356 0.30377,1.56344 -0.88165,3.66389 -0.94374,1.67222 -0.87068,2.30035 0.31565,2.71391 1.68339,0.58683 4.03628,0.055 6.12847,-1.38516 1.0821,-0.74489 2.60803,-3.26304 2.91439,-4.80946 0.46527,-2.34853 0.0658,-7.89803 -0.62871,-8.73491 -0.17742,-0.21378 -0.35545,-2.22685 -0.44844,-5.07071 -0.16602,-5.07743 -0.17305,-5.03771 1.45891,-8.238719 1.12851,-2.21351 3.09225,-3.82157 5.41516,-4.43434 1.08693,-0.28673 1.49465,-0.2763 2.65585,0.0679 2.81616,0.83486 4.10493,1.83477 5.32645,4.13261 0.76325,1.43578 0.88205,3.196449 0.27025,4.005329 -0.21365,0.28247 -0.39274,0.69919 -0.39797,0.92604 -0.012,0.52051 -0.96171,1.62683 -1.89941,2.21266 -0.95618,0.59737 -2.11503,0.56632 -3.40387,-0.0912 -1.26667,-0.6462 -1.75848,-1.51714 -1.3197,-2.337 0.24747,-0.4624 0.54692,-0.56336 1.68086,-0.56669 1.62941,-0.005 1.94009,-0.16238 2.17642,-1.10398 0.26604,-1.05998 -0.065,-1.748189 -1.2557,-2.610759 -0.86849,-0.62913 -1.34551,-0.77913 -2.47767,-0.77913 -1.23995,0 -1.49541,0.0995 -2.20899,0.8599 -0.4438,0.47294 -1.1228,1.482309 -1.50889,2.243029 -0.62039,1.22237 -0.70198,1.69023 -0.70198,4.02541 0,1.45327 0.12372,2.79539 0.27493,2.9825 0.15121,0.18711 0.36139,0.87599 0.46705,1.53083 0.10567,0.65485 0.28625,1.30969 0.40129,1.45521 0.11505,0.14552 0.29409,0.95077 0.39789,1.78944 0.10379,0.83866 0.29386,1.58983 0.42237,1.66926 0.3116,0.19258 0.30168,6.12532 -0.0106,6.3183 -0.13432,0.083 -0.32881,0.53606 -0.43219,1.00675 -0.24736,1.1262 -1.55182,4.16753 -2.10171,4.90009 -0.91334,1.21676 -1.88749,1.97655 -3.60612,2.81264 -3.68634,1.79336 -6.79803,2.20328 -9.07597,1.19564 -1.7149,-0.75858 -2.08055,-0.44025 -1.84866,1.60939 0.12982,1.14748 0.0628,1.7388 -0.27869,2.45841 -0.58969,1.24268 -0.38833,1.76421 1.24979,3.23702 1.69237,1.52159 2.80242,2.09559 5.06931,2.62132 2.18704,0.50721 3.32025,0.51416 5.13346,0.0315 3.24538,-0.86386 4.3291,-2.54952 2.8042,-4.36176 -1.37574,-1.63497 -3.81295,-0.76726 -3.81295,1.35751 0,1.03067 -0.30445,1.26802 -1.62653,1.26802 -1.36745,0 -1.81305,-0.41335 -1.81305,-1.68185 0,-3.03156 2.6839,-5.18062 6.48229,-5.19051 2.14122,-0.006 3.0742,0.43241 4.26883,2.00397 0.71358,0.93873 0.75644,1.13973 0.7274,3.41147 -0.0269,2.10812 -0.11728,2.55087 -0.71298,3.49451 -0.68759,1.08921 -1.97986,2.19575 -2.56432,2.19575 -0.17382,0 -0.69122,0.16446 -1.14978,0.36547 -0.76204,0.33405 -5.15499,1.00629 -6.0231,0.92169 -0.20178,-0.0197 -1.14079,-0.1748 -2.08668,-0.34475 z m -14.81667,-20.0179 c 0,-0.5354 -0.412666,-1.11682 -1.608006,-2.2656 -2.14189,-2.05845 -2.23036,-2.09668 -3.02148,-1.30556 -0.76585,0.76585 -0.82885,1.44564 -0.24751,2.67072 0.48157,1.01485 2.18521,2.67167 2.91774,2.83755 0.72754,0.16476 1.959256,-1.05303 1.959256,-1.93711 z m 8.65386,0.16634 c 0.92953,-1.08821 1.26919,-2.40121 0.88356,-3.4155 -0.42112,-1.10762 -1.18187,-0.85847 -3.0614,1.00264 -1.82496,1.80709 -1.85455,1.86663 -1.45279,2.92334 0.56871,1.49583 2.10089,1.2804 3.63063,-0.51048 z"
       id="path72" />
  </g>
</svg>
