<svg width="153" height="153" viewBox="0 0 153 153" fill="none" xmlns="http://www.w3.org/2000/svg">
<g clip-path="url(#clip0)">
<path d="M58.8359 152.464C59.8987 148.704 60.1572 147.358 60.2774 144.954C60.5144 140.217 59.2948 135.818 56.3838 130.909C53.5312 126.099 53.0524 124.254 52.7982 117.091C52.5603 110.387 51.4764 105.78 48.927 100.636C47.6431 98.0456 43.4947 91.1954 42.2475 89.6063C39.1655 85.6795 33.496 82.9052 24.2472 80.7982C16.7751 79.0958 13.4987 77.8501 10.4855 75.5657C7.78471 73.5182 5.51597 69.9128 4.44416 65.9649C3.967 64.2074 3.16172 59.1918 3.32973 59.0237C3.68662 58.6669 6.65848 59.7142 8.86367 60.9741C12.0077 62.7703 14.0147 63.4947 15.9128 63.5182C17.7335 63.5408 18.6751 63.1408 21.3368 61.2136C23.8787 59.3731 28.3466 57.1791 31.7878 56.0817C33.1702 55.6408 36.7252 54.6179 39.6878 53.8085C48.1208 51.5046 51.9238 49.9328 56.5404 46.8432C61.2238 43.709 64.6738 39.8378 67.2647 34.8096C67.9991 33.3844 69.3113 30.0566 70.1808 27.4144C72.7301 19.6673 75.1988 15.1627 79.2278 10.9064C84.3501 5.49496 90.6594 2.31094 99.0581 0.898798C100.009 0.738878 100.05 0.762588 100.041 1.47157C100.027 2.57893 99.6083 3.15045 97.0827 5.51083C95.3194 7.15878 94.572 8.08188 93.9077 9.43253C93.1056 11.0632 93.0398 11.3925 93.0517 13.7165C93.068 16.9032 93.5316 18.1325 96.3461 22.4518C99.4673 27.2417 99.6239 27.7463 99.6711 33.1674C99.6927 35.6413 99.7961 38.3202 99.9009 39.1205C100.534 43.9524 102.759 49.9688 106.172 56.0767C108.798 60.7743 110.727 63.5088 113.18 66.0074C115.728 68.603 118.386 70.273 122.589 71.9203C130.35 74.9617 137.736 79.0946 142.28 82.9386C144.443 84.769 144.788 85.1426 145.92 86.8778C147.093 88.6772 147.951 90.8431 148.121 92.4341C148.242 93.5593 148.178 93.834 147.692 94.2721C146.951 94.9408 145.987 94.8932 143.082 94.0448C139.292 92.9382 136.668 93.178 131.816 95.0737C126.838 97.019 125.238 97.3525 119.629 97.614C113.706 97.8902 110.71 98.3421 107.358 99.4652C103.089 100.896 99.6601 102.945 95.6847 106.444C93.0874 108.729 92.4712 109.115 90.3822 109.765C82.5212 112.209 78.8796 115.417 77.3868 121.214C76.8631 123.248 76.8169 127.549 77.2836 130.831C77.6711 133.558 77.4206 135.8 76.4844 137.984C75.7399 139.721 73.8425 142.307 72.3424 143.629C71.3916 144.467 62.4576 150.59 59.0662 152.729C58.7842 152.906 58.7288 152.843 58.8359 152.464V152.464ZM80.7233 110.376C87.293 109.316 92.4426 106.535 97.4626 101.336C101.904 96.7352 105.866 90.2095 107.307 85.118C109.82 76.2436 107.842 66.654 101.364 56.3006C95.7819 47.3789 90.3374 42.5371 84.2242 41.0583C81.9363 40.5048 77.7661 40.5194 75.091 41.0901C68.1261 42.5761 59.9588 46.8839 53.8805 52.2774C49.9536 55.7619 46.1669 60.3175 45.0619 62.8867C41.184 71.9036 43.7026 86.8872 50.8855 97.5318C54.9523 103.559 63.0078 109.59 68.4342 110.672C70.7021 111.124 77.0315 110.971 80.7233 110.376V110.376ZM69.5182 96.7145C69.0154 96.1814 68.4033 95.0103 67.9625 93.7379C65.9254 87.8587 65.9401 82.6888 68.0092 77.3353C69.6204 73.1663 76.3761 61.8269 79.2098 58.5352C80.322 57.2432 80.4076 57.1964 81.0471 57.5315C82.6939 58.3943 83.5954 65.9569 82.8423 72.5903C82.0162 79.8664 79.3474 88.2257 76.4924 92.4799C75.4106 94.092 72.8892 96.7221 71.9515 97.2166C70.8869 97.7781 70.433 97.6844 69.5182 96.7145H69.5182ZM115.623 140.186C114.558 139.564 111.267 139.097 106.322 138.867C100.669 138.604 98.8373 138.277 96.5711 137.129C93.9202 135.785 90.2606 131.57 88.4336 127.756C86.1398 122.967 87.8196 119.481 94.3626 115.453C95.7808 114.58 98.5038 112.703 100.414 111.282C104.796 108.022 105.744 107.55 108.12 107.445C110.488 107.34 111.8 108.005 112.684 109.755C113.503 111.378 113.432 112.6 112.371 115.165C110.828 118.891 110.527 120.368 110.534 124.184C110.539 127.124 110.641 127.95 111.229 129.873C112.292 133.345 113.624 136.077 116.035 139.728C116.528 140.476 116.387 140.632 115.623 140.186V140.186ZM13.8793 118.06C13.7608 117.499 13.6721 115.612 13.6822 113.865C13.716 108.017 15.2515 104.322 20.6055 97.206C24.4362 92.1147 25.4561 91.219 27.628 91.0389C28.7714 90.9441 29.4344 91.0783 31.0826 91.7383C37.0612 94.1322 42.2388 99.3859 44.4069 105.258C45.0004 106.866 45.0338 107.142 44.7142 107.794C43.6934 109.877 40.8825 110.566 32.317 110.829C25.3599 111.044 24.0331 111.258 21.0722 112.645C18.9038 113.661 16.9156 115.299 15.4788 117.255C14.8169 118.155 14.2347 118.934 14.1851 118.986C14.1355 119.037 13.9979 118.62 13.8793 118.06V118.06ZM120.011 63.2299C117.19 62.5001 114.31 59.8432 112.069 55.9021C111.33 54.6031 109.789 52.018 108.645 50.1573C106.785 47.1315 106.553 46.6092 106.452 45.2112C106.315 43.3185 106.899 42.1739 108.438 41.3215C110.187 40.3521 111.281 40.3326 115.026 41.2036C120.114 42.3867 121.31 42.5601 124.38 42.5601C128.632 42.5601 131.291 41.6678 134.144 39.2838C135.709 37.9765 137.36 35.9743 138.549 33.9416C139.775 31.8448 139.782 31.8536 140.435 36.3941C141.177 41.553 140.651 43.4859 137.31 47.8886C136.277 49.2508 134.035 52.4489 132.33 54.9955C129.038 59.9101 127.286 61.8253 125.259 62.7216C123.925 63.312 121.308 63.5654 120.011 63.2299V63.2299ZM40.8251 44.759C40.2143 44.1482 39.9267 43.445 39.4578 41.4156C38.8494 38.7829 38.8534 38.5732 39.5746 35.2841C40.0496 33.118 40.1134 28.8989 39.7015 26.8966C38.6533 21.8014 34.2815 16.8771 27.5759 13.2385L25.6524 12.1948L27.9925 11.8338C29.4313 11.6119 32.4216 11.4784 35.7565 11.4871C41.775 11.5029 44.3751 11.8973 48.9033 13.4809C53.0926 14.9461 58.3595 18.2205 60.6759 20.7999C64.2667 24.7984 61.502 33.2781 55.0472 38.0641C52.5984 39.8798 43.4244 45.1673 42.3501 45.3821C41.7563 45.5009 41.4363 45.3701 40.8251 44.759V44.759Z" fill="black"/>
</g>
<defs>
<clipPath id="clip0">
<rect width="152.4" height="152.4" fill="white"/>
</clipPath>
</defs>
</svg>
