<svg width="24" height="24" viewBox="0 0 24 24" fill="none" xmlns="http://www.w3.org/2000/svg">
<path d="M10.3294 9.55501C10.3294 9.55501 13.7261 9.27263 13.8144 12.4577C13.9026 15.6428 10.7704 16.0838 8.82937 15.9956C6.88837 15.9073 2.78587 13.2165 3.09469 8.93738L3.33412 7.41338L4.01644 6.62869C4.01644 6.62869 5.58562 3.45601 9.16781 2.50088C9.16781 2.50088 9.47475 1.98919 9.85012 1.98919C10.2253 1.98919 10.5324 2.39851 11.0782 2.46676C11.6241 2.53501 11.8288 1.95507 12.3405 1.98919C12.8522 2.02332 12.8863 2.39851 13.4321 2.50088C13.9779 2.60326 16.6389 2.91019 18.7881 5.84419C18.7881 5.84419 18.8904 6.59476 19.1974 6.73126C19.5043 6.86776 20.2207 7.1747 20.3231 7.41357C20.4255 7.65245 21.1419 10.2109 21.0737 11.3027C21.0054 12.3943 20.6985 17.4774 17.3211 19.0466L17.2528 19.9676C17.2528 19.9676 14.7283 22.2191 10.8733 21.9463C7.01831 21.6735 5.98031 21.2674 5.07394 20.0359C4.94906 19.8662 4.767 19.2512 4.767 19.2512L4.42594 18.5348C4.42594 18.5348 4.119 18.0231 4.767 18.1254C5.41519 18.2278 7.76906 19.1488 9.06544 19.1829C10.3618 19.2171 11.0441 18.5348 11.2828 18.4665C11.5217 18.3983 12.9202 17.8524 13.3297 17.7842C13.7391 17.7159 16.2636 16.1713 16.6389 12.4577C17.0143 8.74407 13.6708 6.56063 11.7604 6.52651C11.7604 6.52651 10.5664 6.49238 10.2934 6.66301C10.0204 6.83363 8.24644 7.65226 7.46194 7.75463C7.46194 7.75463 6.81375 8.3687 6.91612 9.11926C7.0185 9.86982 7.0185 12.453 9.74756 12.4577C9.74756 12.4577 10.3993 12.1059 10.3294 9.55501V9.55501Z" fill="black"/>
</svg>
